<svg xmlns="http://www.w3.org/2000/svg" xmlns:xlink="http://www.w3.org/1999/xlink" viewBox="0 0 350 350.89"><defs><style>.cls-1{isolation:isolate;}.cls-2{fill:url(#radial-gradient);}.cls-3{fill:#4d9157;}.cls-4{fill:#010101;}.cls-5{fill:#dfb795;}.cls-6{fill:#dbae88;}.cls-7{fill:#e4b38f;}.cls-21,.cls-8{fill:#3f2c20;}.cls-8{opacity:0.22;}.cls-35,.cls-8{mix-blend-mode:multiply;}.cls-9{fill:#8d583f;}.cls-10{fill:url(#radial-gradient-2);}.cls-11{fill:#daad85;}.cls-12{fill:#421f11;}.cls-13{fill:#d57968;stroke:#ae4335;stroke-width:0.48px;}.cls-14{fill:#ae4335;}.cls-15{fill:#fff;}.cls-16{fill:url(#radial-gradient-3);}.cls-17{fill:#b06743;}.cls-18{fill:#a55650;}.cls-19{fill:#b99371;}.cls-20{fill:#d5aa80;}.cls-22{fill:url(#linear-gradient);}.cls-23{fill:url(#linear-gradient-2);}.cls-24{fill:#955337;}.cls-25{fill:#ebbfa8;}.cls-26{fill:url(#radial-gradient-4);}.cls-27{fill:url(#radial-gradient-5);}.cls-28{fill:#5e5e5e;}.cls-29,.cls-38{fill:#9e9e9e;}.cls-30{fill:none;}.cls-31{fill:gray;}.cls-32{fill:#e4b59f;}.cls-33{fill:#d0a088;}.cls-34,.cls-35{fill:#925638;}.cls-35{opacity:0.27;}.cls-36{fill:#c2c2c2;}.cls-37{fill:#5e3c2b;}.cls-38{stroke:gray;stroke-width:0.57px;}</style><radialGradient id="radial-gradient" cx="234.91" cy="252.19" r="276.36" gradientUnits="userSpaceOnUse"><stop offset="0" stop-color="#7fc782"/><stop offset="1" stop-color="#3f7647"/></radialGradient><radialGradient id="radial-gradient-2" cx="-362.08" cy="-43.23" r="3.73" gradientTransform="matrix(9.16, 0.44, -0.23, 4.82, 3497.87, 522.02)" gradientUnits="userSpaceOnUse"><stop offset="0.46" stop-color="#945a43"/><stop offset="0.86" stop-color="#cfa28a"/><stop offset="1" stop-color="#dab098" stop-opacity="0"/></radialGradient><radialGradient id="radial-gradient-3" cx="-361.77" cy="-42.88" r="0.94" gradientTransform="matrix(8.86, 2.37, -2.37, 8.86, 3296.95, 1393.18)" gradientUnits="userSpaceOnUse"><stop offset="0.53" stop-color="#010101"/><stop offset="0.56" stop-color="#371d10"/><stop offset="1" stop-color="#5b2c14"/></radialGradient><linearGradient id="linear-gradient" x1="-44.08" y1="211.34" x2="-44.08" y2="236.75" gradientTransform="matrix(0.97, 0.26, -0.26, 0.97, 221.69, -43.52)" gradientUnits="userSpaceOnUse"><stop offset="0.25" stop-color="#b88963"/><stop offset="1" stop-color="#dab098"/></linearGradient><linearGradient id="linear-gradient-2" x1="-42.01" y1="211.82" x2="-37.58" y2="227.7" gradientTransform="matrix(0.97, 0.26, -0.26, 0.97, 221.69, -43.52)" xlink:href="#radial-gradient-2"/><radialGradient id="radial-gradient-4" cx="-368.1" cy="-40.95" r="0.87" xlink:href="#radial-gradient-3"/><radialGradient id="radial-gradient-5" cx="-310.76" cy="-116.19" r="6.04" gradientTransform="matrix(9.08, 1.29, -1.29, 9.08, 2868.1, 1610.2)" gradientUnits="userSpaceOnUse"><stop offset="0.47" stop-color="#e4b38f" stop-opacity="0.28"/><stop offset="0.82" stop-color="#e8b999"/><stop offset="1" stop-color="#e4b38f"/></radialGradient></defs><title>avatar</title><g class="cls-1"><g id="avatar"><rect id="background" class="cls-2" width="350" height="350"/><g id="head"><path class="cls-3" d="M101,319.71a95.1,95.1,0,0,0-12.11,6.36,62.54,62.54,0,0,0-11.91,10.11A65,65,0,0,0,67.3,350h54.89Z"/><path class="cls-4" d="M64.67,350h5a68.24,68.24,0,0,1,12.8-17.33,62.12,62.12,0,0,1,8.39-6.92,100.92,100.92,0,0,1,10.11-6,91.07,91.07,0,0,0-10.9,4.72,56.1,56.1,0,0,0-9.42,6.18,60.18,60.18,0,0,0-15.09,18.22Z"/><path class="cls-3" d="M350,350a68.78,68.78,0,0,0-12.78-17.13A62.69,62.69,0,0,0,328.9,326a101.66,101.66,0,0,0-10-6h0l-21,30H350Z"/><path class="cls-3" d="M223.47,350l-41-43.88c-27.22,2.3-56.06,2.44-81.52,13.59L101,350H223.47Z"/><path class="cls-3" d="M182.49,306.12c-27.22,2.3-56.06,2.44-81.52,13.59"/><path class="cls-4" d="M182.49,306.12a30.29,30.29,0,0,0-11.32-1.34c-2.52.17-10.08,0.67-17,1.26s-13.29,1.37-13.29,1.37l-4,.54c-1.23.15-2.66,0.4-4.23,0.64s-3.26.54-5,.88a142.47,142.47,0,0,0-16.8,4.22,25.81,25.81,0,0,0-5.46,2.51,37.23,37.23,0,0,0-4.35,3.51,43.82,43.82,0,0,0,5.49-.5,31.56,31.56,0,0,0,5.66-1.34,150.08,150.08,0,0,1,16.28-4.06c1.68-.33,3.33-0.63,4.87-0.86s2.94-.49,4.14-0.64l4-.54s6.22-.76,13.12-1.32,14.46-1.08,17-1.29A28.53,28.53,0,0,0,182.49,306.12Z"/><path class="cls-3" d="M320.92,350c0.39-16.68,0-29-2-30A145,145,0,0,0,299,312.16c-7.66-1.68-15.48-3.1-23.25-4.3-38.84-6-76.45-6.94-94.36-2.8L157,350H320.92Z"/><path class="cls-4" d="M181.41,305.06c3.37,0,6.13.1,9,.15s5.93,0,9.8-.21c4.19-.26,16.86-0.49,28.49.17s22.17,1.7,22.17,1.7,9.52,0.95,20.23,2.52,22.57,3.81,27.45,4.91l-0.18,0,2.38,0.76c3.67,1.2,6.57,2.1,9.37,2.85s5.52,1.36,8.78,2.15a52.05,52.05,0,0,0-16.77-9.16l-2.45-.79-0.07,0-0.11,0c-5-1.14-16.94-3.48-27.76-5s-20.42-2.52-20.42-2.52-10.63-1.15-22.39-1.74a284.51,284.51,0,0,0-28.93-.15A52.7,52.7,0,0,0,190,302,48.3,48.3,0,0,0,181.41,305.06Z"/><path class="cls-5" d="M267.63,315a34.45,34.45,0,0,0-15.55,1.16c-14.8,4.16-26.17,16.19-41.61,18.56-2.88.8-5.81,1.59-8.76,2.41a75.48,75.48,0,0,0-13.34,4.16c-4.35,1.77-8.62,3.87-12.92,6.1-0.24-2.31.08-4.54-.88-5.81-9.73-15.59-24.72-34.2-14.24-52,5.56-9.16,11.9-17.79,17.59-26.86,1.9-3,3.72-6.1,5.42-9.26,2-2.77,2.82-6.31,3.84-9.7s2.18-6.64,4.77-8.83c22.74-20.09,51.47-30.24,77.48-45.31,15.79,25-3.92,51.75-7,77.47-0.39,6.77-.78,13.53.2,19.82q0.51,5.61,1.12,11.2c0.4,3.72.83,7.44,1.25,11.16A45.56,45.56,0,0,0,267.63,315Z"/><path class="cls-4" d="M267.63,315a34.48,34.48,0,0,0-14.77-.06l-3.38.86c-1.11.3-2.25,0.71-3.38,1.08-2.19.82-4.35,1.73-6.45,2.76-4.24,2-8.38,4.45-12.88,6.8-2.25,1.18-4.6,2.33-7.1,3.35a41.29,41.29,0,0,1-8.06,2.46l-1.46.28-0.19,0-0.07,0-5.75,1.58-1.77.49-0.93.26-0.24.07-0.06,0,0.13,0h-0.05l-0.12,0-0.49.1c-1.39.3-2.84,0.66-4.38,1.1a116.62,116.62,0,0,0-21.77,9.21l3.22,1.73c-0.1-.93-0.09-2-0.16-3.14a10.41,10.41,0,0,0-.26-1.84,5.35,5.35,0,0,0-.89-1.93l0.11,0.16c-2.66-4.26-5.6-8.58-8.36-13.11a76.72,76.72,0,0,1-7.11-14.2,28.73,28.73,0,0,1-1.61-14.91,23.44,23.44,0,0,1,2.44-6.75l0.42-.78,0.48-.78,1-1.61,2-3.12c5.33-8.17,10.35-15.3,13.77-20.8l5.78-9.84-0.11.16a21.51,21.51,0,0,0,2.6-5.29c0.55-1.57.92-2.9,1.25-4a39.56,39.56,0,0,1,1.59-4.72,15.48,15.48,0,0,1,.89-1.77l0.22-.35a9.1,9.1,0,0,1,1-1.29c0.18-.19.38-0.39,0.62-0.6l1-.84,2.52-2.12c0.94-.83,2-1.6,3.16-2.5s2.4-1.86,3.81-2.84,2.86-2.07,4.49-3.11,3.3-2.19,5.13-3.29c3.6-2.27,7.66-4.54,12-6.93s9-4.77,14-7.23c9.82-4.95,20.57-10.17,31.19-16.29l-3-.73a36.57,36.57,0,0,1,5.67,18.12,64.74,64.74,0,0,1-2.44,18.92c-1.55,6-3.4,11.42-4.89,16.15s-2.69,8.71-3.41,11.55-1.29,5.38-1.69,8c-0.12.64-.2,1.28-0.28,1.92l-0.12.95-0.07.6,0,0.46L260.17,271a82.22,82.22,0,0,0,.44,13.49c0.69,4.15,1.19,8.18,1.84,12.25s1.37,8.19,2.14,12.55v0.11a53.29,53.29,0,0,0,3,5.64,49.61,49.61,0,0,1-2.21-6l0,0.11L264.8,296.5c-0.22-4.11-.36-8.18-0.75-12.36a102.06,102.06,0,0,1,.25-12.94l0.25-3.56,0-.46v0.12h0v-0.08l0-.11,0-.22,0.13-.89c0.09-.59.18-1.19,0.3-1.8,0.42-2.42,1-4.94,1.69-7.58s1.85-6.61,3.36-11.31,3.36-10.22,5-16.39a69,69,0,0,0,2.58-20.23,40.84,40.84,0,0,0-6.35-20.27l-1.13-1.8-1.85,1.07c-10.43,6-21.1,11.21-31,16.18-4.93,2.47-9.65,4.93-14.07,7.3s-8.53,4.74-12.21,7.06A157.47,157.47,0,0,0,194,230.33l-2.52,2.12-1,.88c-0.37.32-.69,0.64-1,0.93a13.83,13.83,0,0,0-1.12,1.39c-0.23.33-.34,0.5-0.34,0.5l-0.3.48a19.84,19.84,0,0,0-1.15,2.29,43.81,43.81,0,0,0-1.77,5.22c-0.34,1.15-.7,2.44-1.18,3.82a17.29,17.29,0,0,1-2,4.21l-0.06.08,0,0.08-5.71,9.7c-3.36,5.39-8.34,12.46-13.75,20.75L160,286l-1,1.63-0.52.86-0.5.92a27.86,27.86,0,0,0-2.89,8,33.12,33.12,0,0,0,1.78,17.2,80.88,80.88,0,0,0,7.5,15c2.84,4.64,5.79,9,8.38,13.14l0.1,0.16h0a3.2,3.2,0,0,1,.28,1.41c0.06,0.89,0,2.06.17,3.3l0.33,3.25,2.89-1.51a112.62,112.62,0,0,1,20.95-8.89c1.44-.41,2.81-0.76,4.08-1l0.49-.11,0.38-.09,0.24-.07,0.93-.26,1.77-.49,5.75-1.59-0.26.06,1.65-.32a42.42,42.42,0,0,0,8.87-2.81,70.39,70.39,0,0,0,7.4-3.74c4.55-2.61,8.5-5.23,12.44-7.53,2-1.17,3.94-2.21,5.95-3.21,1-.44,2-0.92,3-1.34l3.22-1.22A35.06,35.06,0,0,1,267.63,315Z"/><path class="cls-6" d="M126.8,75.27l-13.54,43.79s-10.16,17.4-3.19,29.46a20.65,20.65,0,0,1,2.52,10.09,51.27,51.27,0,0,1-1.3,11.32A74.24,74.24,0,0,0,108,181.81a82.66,82.66,0,0,0-1.32,11.85c-0.93,26.55,8.92,50.74,17.11,76.81,1.7,4.53.79,10.12,1.81,15.05,3.72,23.13,31,23.44,48.74,15.84,3.35-1.37,6.42-2.9,10.4-4.3,1.06-.38,2.19-0.75,3.4-1.15a89,89,0,0,0,9.62-3.58c1.57-.68,3.11-1.41,4.63-2.2,5-3.18,10.09-6.24,15.15-9.44,1.69-1.06,3.37-2.14,5-3.23,1.43-.94,2.84-1.9,4.25-2.88,6.47-5.3,14.1-9.72,21.07-14.77q2.11-1.5,4.16-3.07c16.72-9.87,21.81-28.9,19.71-47,0-1.81.08-3.6,0.15-5.39,0.27-7.15.73-14.29,2.81-21.2,1.27-2.57,2-5.29,3.57-7.1,0.08-2.49.1-4.83,0.1-7a41.67,41.67,0,0,1,4-16.63s-12.35-84.74-14.32-83.6S181.4,39.57,181.4,39.57L127.71,73.78"/><path class="cls-7" d="M112.59,129.45c6.27-15,13.59-29.6,19.9-44.86q1.32-3.21,2.56-6.43a49.4,49.4,0,0,1,4.23-4.64c7.45-7.16,17-11.37,29.09-10l8.09-1.06c17-2.25,37.56-5.12,37.56-5.12s24,4.67,25.3,3.91,26.81,29.93,26.81,29.93l5.9,46.29s1.74,36.46-1.37,36.4-27.56,53.59-28.11,55.65-40.89,36.73-40.89,36.73l18-42.86s-0.08-12.54-.25-24.51c0-1.34,0-2.66,0-4,0.54-1.86,1-3.78,1.48-5.76,1.87-14.66,12.45-25.1,17.77-38.57a7.81,7.81,0,0,0-1.71-8,26.14,26.14,0,0,0-5.61-3.58c-10.9-10.84-26-13.82-41.36-13.79-2.19,0-4.39.07-6.58,0.22q-3.08.64-6.16,1.2t-6.14,1c-2,.39-4,0.77-6.09,1.11-2.71.35-5.53,1.47-8.34,0.91a65.85,65.85,0,0,0-38.24-.31C115.47,129.5,112.59,129.45,112.59,129.45Z"/><path class="cls-8" d="M272,137.43l-5.9-46.29s-25.48-30.7-26.81-29.93S214,57.3,214,57.3s-57.1,8-59.7,7.75-14.63,2.77-16,5c-0.34.56-1.23,1.72-2.38,3.15s-2.55,3.12-3.91,4.75a39.7,39.7,0,0,1-2.75,3.51c0,0.08,0,.15,0,0.23-0.24,2.75-.56,5.48-0.92,8.21a66.09,66.09,0,0,1,9-5.82,6.14,6.14,0,0,1,4.48.15c0.11-.43-0.14-0.66,0-1.17,2.83-.08,5.3-0.59,8-0.13s4.2,3.19,5.3-1.65c0.13,0.43.45,1.15,0.58,1.75,0.21-.69.52-1.48,0.73-2.17,0.26,0.88,1.24,2,1.49,2.84,0.39-.94,1.39-1.8,1.74-3,0.8,1.21,1.59,1.72,1.86,3.41-0.19-1.09,0-2.66-.17-3.8,1.13,1.11,1.74,1.18,2.14,3.19,0.24-2.51,2.59-3.35,3.68-1,0.39-1.11,1.26-1.8,1.62-2.9,0.44,1.15,1.06,2,.93,3.68,1.5-1.13,3.36-2.11,3.91.52,0.78-2.16,1.94-2.5,3.35-.78-0.31-2.5.68-4.05,2.9-3.16,2.06,0.83,2.21,5.52,2.42,7.58,0.88-2.57.83-5.22,1.73-7.75a7.08,7.08,0,0,1,.52,5.26c0.73-2.33,2.25-4.72,4.29-5.75-0.72,1.15-1.35,2.64-2.06,3.7,1.49-1.53,3.27-2.94,4.87-2.13-0.82,1.11-1.35,2.82-2.13,3.82,2.52-.76,4.89-3.07,7.39-4.1a7.53,7.53,0,0,1-.66,4.59c1.5-1.56,2.89-3.93,4.37-5.73,0,0.71.09,1.54,0.12,2.35a5.67,5.67,0,0,1,1.52-2.89c0,0.71.7,2.34,0.63,3.21,1.4-1.8,2.39-3.91,4-5.5,0.69,1.09,1.65,1.36,1.95,3,0.71-2.17.44-4.23,1.94-5.81,1.72,1.38,3.5,3.4,5.19,4.7a6,6,0,0,0,1-3,10.63,10.63,0,0,0,.75-2,24,24,0,0,0,.28,4.77,4.89,4.89,0,0,0,.46-1.13c1,1.47.16,2.73-1.18,3.45,2.49-.38,5,0.64,7.37,0-0.56.56-1.22,1.59-1.66,2.06,1.56,0,3.08-1,4.49-2.11a23.25,23.25,0,0,0-1.75,2.39c1.51,0.07,3.39-.57,4.9-0.76-0.57,1.29-.77,3.08-1.41,4.3,0.79-.83,1.91-1.6,2.66-2.56-0.86,1.48-1.82,3-2.77,4.39,2.2-.58,3.85-2.62,6-3.18-1,2.14-2.8,3.87-2.74,6.25a51.94,51.94,0,0,0,4.7-3.09c-1,1.43-1.86,2.95-2.68,4.48a1.53,1.53,0,0,0,.48.57c1.52-1.27,3.15-2.92,5-3.43-0.56,2.23-2.1,4-2.71,6.18A13.53,13.53,0,0,0,239.75,92a27,27,0,0,0,.12,3.78l-0.3.1,0.32,0.34a11.52,11.52,0,0,1-.39,4.27,23.83,23.83,0,0,1,1.74-3c0.7,0.59,1.47,1.21,2.21,1.85a27.4,27.4,0,0,0,1.43,3.08,5.78,5.78,0,0,0-4.4.26c1.34,3.26,6.92,3.82,9.16,6.34-2.09-.4-4.37-1.38-6.35-1.07,2,5,7.8,8.86,9,14.72a28.44,28.44,0,0,1-7.29-5c-0.27,2.7.85,5,1.76,7.42a10.11,10.11,0,0,1,5.08,7.3A57.08,57.08,0,0,0,255,144.53c1.52,4.42,3.2,8.78,4.75,13.19a10,10,0,0,1-4.31,12.22c0.49,1.57,1,3.14,1.54,4.69,1.52,4.38,3.09,8.73,4.32,13.21,0.1,0.35.18,0.7,0.27,1,4.35-8.57,8-15.08,9.12-15.06C273.78,173.88,272,137.43,272,137.43Z"/><path class="cls-9" d="M142.15,208.06a19.41,19.41,0,0,1-5.41,1.18,9.72,9.72,0,0,1-4.2-.61l0.08,0a10.79,10.79,0,0,1-5-3.39,13.74,13.74,0,0,1-2.77-8.76,28.19,28.19,0,0,1,2.45-11.08,115.91,115.91,0,0,1,5.86-11.17A79.11,79.11,0,0,0,138.81,163c0.17-.48.33-0.95,0.48-1.43s0.31-1,.47-1.45q0.48-1.41.91-2.79c0.28-.92.55-1.82,0.77-2.7,0.11-.44.21-0.88,0.28-1.32a5.54,5.54,0,0,0,.08-0.66,0.65,0.65,0,0,0-.16-0.59c-0.13,6.29-2.89,14.95-6.86,22.65-1.89,3.91-3.83,7.77-5.24,11.49a34.1,34.1,0,0,0-1.55,5.38,26.91,26.91,0,0,0-.47,4.89,12.15,12.15,0,0,0,2.08,7.23,11,11,0,0,0,3.74,3.16l0.06,0C135.23,208,137.84,208.62,142.15,208.06Z"/><path class="cls-10" d="M201.74,131.18c12.53,3.93,23.65,8.44,30.93,19.89,3.18,5,5,12,1,17.17-5.84,7.63-19.91,12.09-28.79,14.21a32,32,0,0,1-9.55.8,34.64,34.64,0,0,1-9.21-1.9c-9.07-3.28-16.06-9.81-21.65-18a40,40,0,0,1-3.91-8.74s0.39-28.06,35.31-25.29C195.87,129.34,202,130.86,201.74,131.18Z"/><path class="cls-11" d="M178.26,131.08s0.45-.19,1.29-0.48a33.34,33.34,0,0,1,3.65-1,48.63,48.63,0,0,1,12.73-1h0l0.09,0c1,0.21,2,.43,3,0.68l1.54,0.4,0.8,0.24,0.43,0.16,0.28,0.13a1.41,1.41,0,0,1,.23.15,1.32,1.32,0,0,1,.26.31,0.84,0.84,0,0,1,.12.39,1,1,0,0,1-.21.72L202,130.25c4.14,1.16,8.48,2.36,12.58,3.93A43.53,43.53,0,0,1,225.49,140a25.35,25.35,0,0,1,6.26,6.58c1.2,1.88,1.57,3.16,1.22,3.37s-1.29-.66-2.75-2.17a42.29,42.29,0,0,0-6.34-5.62,51.39,51.39,0,0,0-10.24-5.55c-3.89-1.65-8.13-3.06-12.19-4.48L201,130.58a0.92,0.92,0,0,0-.2.67,0.94,0.94,0,0,0,.1.35,0.89,0.89,0,0,0,.19.24l0.06,0-0.08,0-0.31-.13-0.7-.26-1.46-.48-2.9-.88,0.12,0a50.9,50.9,0,0,0-12.52,0,34.87,34.87,0,0,0-3.7.69C178.73,130.94,178.26,131.08,178.26,131.08Z"/><path class="cls-7" d="M180.64,178.91s-0.92-.42-2.47-1.3a40.88,40.88,0,0,1-6.05-4.23,42.61,42.61,0,0,1-7.13-7.68A40.18,40.18,0,0,1,159.45,155l-0.06-.17v-0.19a28.22,28.22,0,0,1,3-11.64,23.57,23.57,0,0,1,6.57-8.17,20.91,20.91,0,0,1,6.47-3.51c1.72-.47,2.72-0.56,2.84-0.2,0.31,0.85-3.43,2.06-7.65,5.71a24.48,24.48,0,0,0-5.81,7.42,29.53,29.53,0,0,0-2,5,26.35,26.35,0,0,0-1,5.44l-0.05-.36a40.9,40.9,0,0,0,4.67,10.5,43.71,43.71,0,0,0,6.35,8,42.52,42.52,0,0,0,5.6,4.66C179.76,178.4,180.64,178.91,180.64,178.91Z"/><path class="cls-9" d="M154,205.67a13,13,0,0,1-2.68-.1,21.82,21.82,0,0,1-2.55-.93,12.73,12.73,0,0,0-4.61-1.08,6.08,6.08,0,0,0-4.43,2.35l0.56-1.06a11.83,11.83,0,0,1,.83-1.12,6.49,6.49,0,0,1,2.63-1.76,9.28,9.28,0,0,1,5.9.17,6.66,6.66,0,0,1,2.61,1.53C152.85,204.19,153.22,204.77,154,205.67Z"/><path class="cls-4" d="M112.78,232.15a10.22,10.22,0,0,1-2.5-3.72,7.76,7.76,0,0,1-.41-2.07,13.86,13.86,0,0,1,.12-3.23,18.81,18.81,0,0,1,4.09-8.66,39.92,39.92,0,0,1,6.9-6.62,38.12,38.12,0,0,0-5.47,7.42,24,24,0,0,0-2.9,8.25,21.33,21.33,0,0,0-.21,2.7c-0.07.72,0,1.27,0,1.82A14.31,14.31,0,0,0,112.78,232.15Z"/><path class="cls-12" d="M234.92,142.77s-0.83-.69-2.33-1.83-3.68-2.74-6.44-4.45a67,67,0,0,0-9.87-5c-0.94-.38-1.91-0.75-2.9-1.11s-2-.6-3-0.87a57.72,57.72,0,0,0-6.37-1.27,54.19,54.19,0,0,0-6.52-.51c-2.17-.05-4.34.06-6.58,0.18l-1.45.14-1.51.21c-1,.16-2,0.32-3,0.54-1.95.4-3.82,0.91-5.61,1.44-7.12,2.17-12.86,4.48-15.75,4.35l-0.26-2.84c0.8,0.71,1.06,1.33.84,1.88a2.06,2.06,0,0,1-1.63,1.06l-3,.64,2.74-3.48a19,19,0,0,1,5.23-4,52.8,52.8,0,0,1,9.75-4.27,47.58,47.58,0,0,1,6.33-1.62c1.12-.22,2.28-0.37,3.46-0.51l1.79-.15,1.9-.07c1.21,0,2.24,0,3.49.08s2.41,0.14,3.62.28a51.24,51.24,0,0,1,7.17,1.31,54.56,54.56,0,0,1,6.75,2.22c1.09,0.45,2.08.86,3.19,1.42s2,1.05,2.88,1.6a61.68,61.68,0,0,1,9.38,6.79,69,69,0,0,1,5.67,5.59C234.25,141.94,234.92,142.77,234.92,142.77Z"/><path class="cls-7" d="M230.37,193.29a57,57,0,0,0-1.37,6.44c-0.34,2.17-.58,4.36-0.77,6.55,1.63,21.83-4.55,49.64-24.23,61A38.36,38.36,0,0,1,190.54,272c-3.67.2-8.6,1.21-9.8-.86-2-3.45,2.72-8,6.14-11.16,3.61-3,7.92-5.48,11.39-8.63,4.86-5.11,2.8-12.65-2.06-16.28-2.43-1.81-4.46-2.94-7.33-3.12-20.45-2-39.35,9.88-60,10.77-5.19-.22-10.88-2.91-10.37-9.18,0.91-5.58,3.7-9.5,8.13-13a37.06,37.06,0,0,1,18.76-7.38c1.31-.15,2.63-0.24,4-0.27,7.59,0,14.52-.71,21.33,2.34q1.86,0.49,3.68,1.07t3.59,1.26c1.85,0.55,3.7,1.1,5.56,1.61s3.73,1,5.62,1.39L196,222.4a3.38,3.38,0,0,0-2.15-.87,3.38,3.38,0,0,1,2.15.87,49.91,49.91,0,0,0-2.88-5.13c-0.78-1.6-1.65-3.32-2.51-5.13-0.74-1.46-1.46-2.94-2.2-4.42a34,34,0,0,0-2.23-4.63c-5-8.37-10.19-15.93-14-25,6.77,4.37,13.39,9.85,21.62,12a50.46,50.46,0,0,0,5.6,1.14,35.79,35.79,0,0,0,17.28-1.54,21.37,21.37,0,0,0,4.43-1.79,21,21,0,0,0,4.1-2.91c0.08-.56,2.23.32,2.72,1.28,0.79,0.83,1.47,2,2.42,3a2.31,2.31,0,0,0,.33-1.41"/><path class="cls-13" d="M139.92,230.29c-6.85.39-17.09-6.61-20,1.86-0.31,2.18,1.19,3.5,3.39,3.81a4.59,4.59,0,0,0-2.42,5.21c1,5.13,7.17,4.9,11.58,5.52,6.14,0.31,12.19,1.17,18.48.4,5.19-.93,9.75-1.39,14.46-2.94,2.43-1.32,5.34-2,7.78-3.34,2.51-1.86,4.87-2.64,6.35-5.2,0.7-1,.94-2.64,1.64-3.65-11.39,5-24.22.46-35.67-1.09A39.71,39.71,0,0,0,139.92,230.29Z"/><path class="cls-14" d="M180.75,233.67c-18.08,6.2-38.67,8.83-57.41,2.29,14.4,1.48,29.26,3.59,43.76,1A75.92,75.92,0,0,0,180.75,233.67Z"/><path class="cls-15" d="M167.93,158.39s11.39-12,24-10.19a28.7,28.7,0,0,1,18.71,11C195.87,171.46,167.93,158.39,167.93,158.39Z"/><path class="cls-16" d="M192,148.21a9,9,0,0,0-2.74,16,39.06,39.06,0,0,0,10.87-.32,9,9,0,0,0,1.58-12.4A28.78,28.78,0,0,0,192,148.21Z"/><circle class="cls-15" cx="198.42" cy="154.75" r="2.23" transform="translate(-2.3 306.5) rotate(-75.04)"/><path class="cls-17" d="M223.81,162.22a1.41,1.41,0,0,1-.61-0.12l-0.53-.16a2.72,2.72,0,0,1-.75-0.32,8.11,8.11,0,0,1-1-.58,7.73,7.73,0,0,1-1.11-1,18.58,18.58,0,0,1-2.29-3.51,20,20,0,0,0-3.49-4.71c-3.26-3.24-9.06-6.12-17.07-8.14a30.19,30.19,0,0,0-18.7,1.56,36.77,36.77,0,0,0-8.58,5.09c-1.69,1.33-2.49,2.1-2.93,2.47a2,2,0,0,1-.49.38,1.66,1.66,0,0,1,.33-0.59,18.59,18.59,0,0,1,2.66-3,30.48,30.48,0,0,1,3.25-2.65c0.68-.52,1.5-1,2.36-1.53s1.88-1,3-1.53a32.08,32.08,0,0,1,8.21-2.37,33.93,33.93,0,0,1,11.24.54l3,0.79c1,0.28,1.84.63,2.72,0.93a26,26,0,0,1,2.51,1c0.8,0.36,1.59.68,2.33,1a25.86,25.86,0,0,1,7,4.9,19.22,19.22,0,0,1,3.54,5.12,23.77,23.77,0,0,0,1.92,3.57,6.92,6.92,0,0,0,1.72,1.74,7.07,7.07,0,0,0,1.14.72A2.23,2.23,0,0,1,223.81,162.22Z"/><path class="cls-18" d="M210.54,159.07a21.36,21.36,0,0,0-2.06-2.41,10.46,10.46,0,0,0-1,4.61,20,20,0,0,0,3.05-2.09Z"/><path class="cls-18" d="M171.31,158.92c1.32-.76,1.41-1.4,1.31-2.83a7.79,7.79,0,0,1,.12-1.82,39.29,39.29,0,0,0-4.82,4.12s1.62,0.76,4.28,1.73A1.88,1.88,0,0,0,171.31,158.92Z"/><path class="cls-19" d="M115.71,224.79c0.28-3.48-.21-8.09,3.07-10.34a9.42,9.42,0,0,1,2.13-1.35,9.07,9.07,0,0,1,2.43-.71,12.9,12.9,0,0,1,2.17-.36,11.33,11.33,0,0,1,6.38,1.3,7.64,7.64,0,0,1,1.89,1c0.6,0.43,1.17.92,1.74,1.39a14.68,14.68,0,0,0,1.75,1.29,11,11,0,0,0,4.14.95c0.72,0,1.43.06,2.13,0.06,6.42,0.11,12.94-1.81,19.49-2.57l2.38-.11c2.34-.13,4.61-0.32,7.24-0.7,0.94,0,1.86,0,2.76.06,8.06-.36,19.77,5.28,17.34,15.17a11.94,11.94,0,0,1-.74,1.72,9.06,9.06,0,0,1-1,1.45,5,5,0,0,0-.88-1.87,10.91,10.91,0,0,0-9.89-3c-0.71.08-1.43,0.18-2.15,0.29-3.6.57-7.27,1.47-10.6,1.23l-2.16-.23c-4.32-.48-8.62-1.14-13-1.63l-2.91-.46c-2.9-.47-5.78-1-8.59-1.59l-1.78-.22c-7.31.21-17.12-6.86-22.76,0.87a4.13,4.13,0,0,1-.56-2"/><path class="cls-20" d="M194.37,272.85c-1.67,1.46-3.44,1.57-5.22,1.68a3.41,3.41,0,0,1-4.2-1.71c-4.93-7.73-4.3-21-15.07-22.09-17.88-.7-38.41,10.71-53.48-2.64,5.83,10.88,7.82,23.07,8.72,35,7-2.21,1-10.23,4.07-15.23,5.73-8.37,17.84-5.72,24.44.12,1.34,1.52,3.23,3.19,3.88,5.12,1.44,12,13.77,18.24,24.54,18.79l3,0.33a21.86,21.86,0,0,0,4.38,1.11c6.23,0.88,12.36-1.54,14.13-8.17a11,11,0,0,0-2-9.89,12.26,12.26,0,0,0-1.41-1.5,17.13,17.13,0,0,0-3.42-1.29A8.45,8.45,0,0,0,194.37,272.85Z"/><path class="cls-21" d="M130,251.29a1.39,1.39,0,0,0-.25-0.71c-1.79,4.22-4.47,7.59-4,12.37-0.13-1.77,1.39-3.11,2.37-4.6-1.41,3.12-2.23,6.37-1.24,9.51a22.26,22.26,0,0,1,2.6-5.68c-0.42,1.63-1.51,3.65-.8,5.57a6.16,6.16,0,0,1,2.76-3.91,11.67,11.67,0,0,0-.52,4.48,9,9,0,0,1,1.51-3.65c-0.27,1.08-.54,2.17.58,2.45,0.14-.54-0.29-1.23-0.16-1.77a2.94,2.94,0,0,0,.72,1.91l0.27-1.08c0.43,0.68.3,1.22,0.73,1.91l0.68-2.71c-0.14.54,0.43,0.68,0.3,1.23L136,265c0.43,0.68.16,1.77,0.59,2.45L137,265.8c0.43,0.68.16,1.77,0.6,2.45,0.14-.54-0.16-1.77,0-2.31,0.44,0.68,1,.82,1.45,1.51,0.28-1.08-.16-1.77-0.45-3a5.8,5.8,0,0,1,2.32,2.87c0.28-1.09-.6-2.45-0.89-3.68l1.74,2.73a27.3,27.3,0,0,0-.74-4.23c1.44,1.51,2.76,3.56,4.94,4.66-1.46-1.51-1.61-3.28-2.34-5.19a14.92,14.92,0,0,1,3.49,3.15c-0.44-.68-0.29-1.23-0.73-1.91,1.6,1,2.63,1.79,4.24,2.74-1.76-2.73-2.77-5.87-3.91-8.47,1.75,0.42,2.46,2.33,4.06,3.29-1-3.14-3.91-3.84-6.49-5.63,1.31-.27,2-0.67,2.9.7a10.49,10.49,0,0,0-3.89-1.53c0.58,0.14,1.31-.26,1.89-0.12a3.93,3.93,0,0,0-3.45-.84c0.16-.55.73-0.41,0.89-1a5.59,5.59,0,0,1-3-.16c0.73-.4.89-1,1.62-1.36a6.16,6.16,0,0,1-3.48,1.48l0.48-1.64c-0.73.41-1,1.5-1.77,1.9a3,3,0,0,0-.89-3.16c-0.16.55,0.08,1.78-.08,2.33l-1.59-2.76c-0.16.55,0.07,1.78-.09,2.33-1.19-2.07-1.67-.43-3.88-1-0.94,3.27.55,0.14,0.51,0.41"/><path class="cls-19" d="M114,94.39l-0.2.76"/><path class="cls-7" d="M125.16,83.3l-0.1.38c-0.31,1.14-1.09,2.56-1.5,4.09-1.4,3.7-2,7.42-3.48,11.51C117.87,106,115.86,112,114,118.86"/><path class="cls-4" d="M125.16,83.3l0-.1,0-.12,0-.08s0,0,0,0v0c-0.06.25-.12,0.61-0.26,1.07-0.25.92-.86,2.16-1.23,3.72h0c-0.86,2.46-1.46,5.74-2.39,9.19l-3.14,10.23c-2.05,6.49-3.6,11.76-4.19,11.6s0.67-5.55,2.84-12c1.08-3.24,2.31-6.78,3.52-10.09s1.93-6.61,3-9v0c0.51-1.6,1.21-2.77,1.52-3.65,0.16-.44.26-0.8,0.34-1v0c0.05,0,0,0,0,0l0,0.07,0,0.12Z"/><path class="cls-4" d="M164.41,257.29a2.91,2.91,0,0,1-4.23,1.34c-2.43-1.82-.61-4.24,2.24-4.1A2.31,2.31,0,0,1,164.41,257.29Z"/><path class="cls-4" d="M137.06,257.71c-1.05,2.64-5,1.65-4.82-1.22,0.46-1.63,1.17-2,3-1.46A2.29,2.29,0,0,1,137.06,257.71Z"/><path class="cls-4" d="M121.32,253.75a1.91,1.91,0,0,1-2.4,1.43,2.15,2.15,0,0,1-1.45-2.55,1.9,1.9,0,0,1,2.39-1.43A2.15,2.15,0,0,1,121.32,253.75Z"/><path class="cls-22" d="M138.54,164.88c0.39-1.1.84-2.44,1.27-3.82a61.23,61.23,0,0,0,1.93-7.51,23.59,23.59,0,0,0-12.23-11.42c-5.93-2.57-15.52-4.67-21.37-.73a14.41,14.41,0,0,0,1.95,7.11,19.38,19.38,0,0,1,2.4,8,38.32,38.32,0,0,1-.38,9c-1.44,5.89-1.95,12.16-4.09,18a74,74,0,0,0,25.7-7.89A76.34,76.34,0,0,0,138.54,164.88Z"/><path class="cls-23" d="M113.85,155.18a14.68,14.68,0,0,1,6-5.08c4.49-1.82,10.81-.43,14.68,2.25,1.45,1,5,2.45,5.68,4.09,0.77,1.92-1.57,4.65-1.93,6.61-7.85,4.3-16.77,7.15-25.49,3l1-8.27Z"/><path class="cls-18" d="M139.25,155l-0.09-.16"/><path class="cls-24" d="M129.37,145c4.76,1.77,9.37,4.17,12.45,7.9-6.52-10.48-22.76-19.48-33.43-10.1,5.33-.32,10.26-1.34,14.85.38A48.74,48.74,0,0,1,129.37,145Z"/><path class="cls-25" d="M109.19,135.66l2.76-1.79a20.68,20.68,0,0,1-2.06.45C109.65,134.76,109.42,135.21,109.19,135.66Z"/><path class="cls-15" d="M145.28,156.82l-1.41,5.29c-5.79.91-11.49,2.41-17.18,2.6-5.46.62-11.2-1.61-12.15-3.26-1.43-2.46-2.64-8.43,2.29-11.28C121.7,148.41,142.05,153.91,145.28,156.82Z"/><path class="cls-18" d="M137.7,153.74c1.62,0.93,5.46,1.6,6.38,3.09,1.7,2.75-1.38,4.09-2.59,5.68l2.37-.4,1.41-5.29c-1.2-1.08-4.77-2.52-9-3.81C136.74,153.23,137.23,153.47,137.7,153.74Z"/><path class="cls-26" d="M128.65,151a9,9,0,0,0-.93,13.55c0.73,0,11.76,0,15.07-4a9.36,9.36,0,0,0-.08-5.2A71.18,71.18,0,0,0,128.65,151Z"/><path class="cls-17" d="M145.54,154.22a0.29,0.29,0,0,1-.25.09,2.8,2.8,0,0,1-1.43-.58l0,0a13.54,13.54,0,0,0-2.35-1l-0.12-.08-1.25-.79,0,0,0,0c-0.44-.38-1.32-0.59-2.3-1.26h0l0,0a6.63,6.63,0,0,0-1.57-.78c-0.68-.28-1.47-0.79-2.05-1.11l-0.22-.1-0.08,0-0.12,0L133,148.3l-1.31-.33c-0.9-.23-1.85-0.45-2.87-0.66a29.87,29.87,0,0,0-4.7-.61,12,12,0,0,0-2,0c-0.63.06-1.25,0.13-1.86,0.15h-0.12a4.52,4.52,0,0,0-2.63.52l-0.06,0h0a11.54,11.54,0,0,0-3,1.79c-0.69.55-1.13,1-1.44,1.25a2,2,0,0,1-.7.55,1.54,1.54,0,0,1,.36-0.87,9.32,9.32,0,0,1,1.2-1.61,10.11,10.11,0,0,1,3.09-2.3l-0.07,0a5.62,5.62,0,0,1,3.42-.89H120.2c0.53,0,1.12-.14,1.78-0.22a12.72,12.72,0,0,1,2.17-.09,28,28,0,0,1,5,.6c1.05,0.21,2,.46,2.94.69l1.32,0.36L134,146.9l0.18,0.06,0.21,0.08,0.35,0.16c0.85,0.49,1.33.85,2,1.14a7.19,7.19,0,0,1,1.9,1.1l0,0c0.65,0.53,1.54.8,2.27,1.48l-0.07-.05,1.29,1-0.12-.08a8.75,8.75,0,0,1,2.31,1.43l0,0a5.91,5.91,0,0,0,1.08.94Z"/><circle class="cls-15" cx="138.07" cy="156.09" r="2.23" transform="matrix(0.26, -0.97, 0.97, 0.26, -48.39, 249.16)"/><path class="cls-4" d="M127.71,73.78c26.13-17.72,34.48-23.38,53-35.29l0.52-.34,0.6,0.21,37.65,13.29c8.74,3.05,18.36,6.42,28.6,9.9,5.12,1.73,10.4,3.52,15.81,5.14l2,0.58a18.54,18.54,0,0,0,1.88.43s-0.18,0-.14.05h0.1a0.8,0.8,0,1,1-.15.06,1.27,1.27,0,0,1,.93-0.06,1.38,1.38,0,0,1,.33.16L269,68a1.82,1.82,0,0,1,.43.57c0.06,0.12.11,0.24,0.15,0.34a11.75,11.75,0,0,1,.38,1.15c0.21,0.73.38,1.45,0.54,2.17,0.64,2.87,1.18,5.75,1.7,8.66,2.06,11.63,3.88,23.61,5.69,35.63s3.51,24.07,5.14,35.86l0,0.19-0.09.18a43.06,43.06,0,0,0-3.67,11.57c-0.15,1-.27,2-0.34,2.94s-0.08,2-.11,3l-0.13,5.91v0.15l-0.1.11a13.18,13.18,0,0,0-2,3.42c-0.53,1.2-1,2.4-1.59,3.55l0-.05a66.1,66.1,0,0,0-2.5,13.66c-0.4,4.42-.52,8.68-0.67,12.82v0a62.13,62.13,0,0,1-.26,16,62.27,62.27,0,0,0,.05-16h0c0.09-4,.13-8.24.46-12.68a66.71,66.71,0,0,1,2.33-14v0c0.54-1.12,1-2.29,1.5-3.51a13.87,13.87,0,0,1,2.07-3.68l-0.08.2,0-5.83c0-1,0-2,.05-3s0.16-2,.3-3a43.9,43.9,0,0,1,3.6-12l-0.05.31c-1.8-11.59-3.7-23.56-5.66-35.54s-4-24-6.17-35.61c-0.56-2.9-1.13-5.79-1.79-8.59-0.17-.7-0.34-1.39-0.54-2.06-0.1-.33-0.2-0.66-0.31-0.92l-0.07-.16,0,0a3.65,3.65,0,0,0,.57-0.41A0.5,0.5,0,0,0,268.1,69a0.14,0.14,0,0,0,0-.1h0c0.54,2,.13.56,0.24,1h-0.14l-0.18,0h-0.36a9.16,9.16,0,0,1-1.29-.21l-1.09-.26L263.24,69c-5.54-1.6-10.85-3.36-16-5.05-10.32-3.42-20-6.74-28.61-9.76-17.14-6-28.89-10.25-37.61-13.48l1-.11C163.06,52.4,154.16,57.58,127.71,73.78Z"/><path class="cls-4" d="M126.8,75.27c-6,15.21-10.14,26.27-15.58,43.16l0.2-.45a49.33,49.33,0,0,0-3.75,8.37,48,48,0,0,0-1.83,7.21,28.4,28.4,0,0,0,.22,10.76c0.33,1,.58,2.06,1,3.08s1,2.12,1.44,2.91a17,17,0,0,1,1.64,5.47c0.55,4.08,0,8.78-1,13.69l0.09-.31a79.08,79.08,0,0,0-4.74,25.76c0,1.48-.06,2.91,0,4.43l0.18,4.54c0.75,12,3.49,23.52,6.32,33.47s5.78,18.42,7.74,24.47l3.13,9.69s0.1,0.26.2,0.64l0.17,0.65c0.05,0.3.14,0.62,0.2,1a64.65,64.65,0,0,1,.5,7.31c0,0.83.11,1.72,0.21,2.67s0.3,2,.49,2.9l0.29,1.45,0.45,1.64c0.14,0.57.36,1.08,0.55,1.63a13.75,13.75,0,0,0,.67,1.63,23.15,23.15,0,0,0,4.19,6.32,24.39,24.39,0,0,0,6.57,4.95A36.29,36.29,0,0,0,153.27,308a56.94,56.94,0,0,0,17.88-3.05c2.93-1,5.69-2.23,8.38-3.4,1.34-.59,2.66-1.15,4-1.66l2-.73,2.06-.7,4.1-1.35c1.39-.48,2.75-1,4.08-1.52l2-.82,1-.45,0.93-.44,3.68-1.75,0.11-.05,0.13-.08L219,282.36c2.14-1.39,4-2.53,5.56-3.6l3.47-2.35,0.08-.06,0.08-.07c3.25-2.63,5.69-4.28,7.47-5.52l4-2.67c2.57-1.72,5-3.34,7.28-5s4.36-3.26,6.32-4.77l-0.17.11a37.62,37.62,0,0,0,13.4-14.15,45.15,45.15,0,0,0,5.15-18.54A48,48,0,0,1,264.33,243,39.41,39.41,0,0,1,251,255l0,0-0.13.09c-2.05,1.43-4.14,3-6.39,4.49s-4.68,3.12-7.26,4.83l-4,2.7c-1.82,1.27-4.33,3-7.77,5.74l0.16-.12-3.47,2.35c-1.43,1-3.37,2.18-5.48,3.55l-15.44,9.62,0.24-.13-3.68,1.75-0.93.44-0.87.37-1.89.78c-1.27.51-2.57,1-3.88,1.44l-4.1,1.35L184,295c-0.74.26-1.43,0.52-2.14,0.79-1.4.55-2.79,1.14-4.14,1.73-2.71,1.17-5.35,2.37-8,3.27a52.58,52.58,0,0,1-16.48,2.82,32,32,0,0,1-14.88-3.17,19,19,0,0,1-8.79-9.18,10.39,10.39,0,0,1-.56-1.35,14.07,14.07,0,0,1-.46-1.33l-0.36-1.28-0.29-1.42c-0.2-1-.33-1.72-0.43-2.55s-0.15-1.61-.19-2.39a67.39,67.39,0,0,0-.56-7.79c-0.07-.48-0.18-0.91-0.25-1.29s-0.19-.74-0.26-1c-0.15-.51-0.22-0.69-0.23-0.7l-3.11-9.65c-2-6.06-4.84-14.51-7.68-24.31s-5.43-21-6.15-32.53l-0.17-4.27c-0.06-1.42,0-2.93,0-4.38a73.37,73.37,0,0,1,.62-8.46,72.53,72.53,0,0,1,3.85-15.83l0.06-.15,0-.16c1.07-5.15,1.74-10.28,1.09-15.19a21.35,21.35,0,0,0-2.11-6.94c-0.58-1-.87-1.77-1.27-2.55s-0.53-1.63-.81-2.41a24.13,24.13,0,0,1-.17-9,44.15,44.15,0,0,1,1.63-6.49,52.27,52.27,0,0,1,3.28-7.62l0.14-.26,0.06-.19C120.35,102.68,123.14,91.19,126.8,75.27Z"/><path class="cls-12" d="M142.38,151.9L141,150.53l-1.56-1.58-0.23-.23-0.12-.12v0l0,0h0l0,0-0.06-.06-0.53-.46-1.14-1c-0.81-.69-1.64-1.48-2.51-2.15a21.19,21.19,0,0,0-2.9-1.88,24.09,24.09,0,0,0-6.89-2.4l-0.92-.16-0.46-.07,0.1,0h-0.11l-0.13,0-0.26,0c-0.32,0-.73-0.11-1-0.11l-0.78,0a31,31,0,0,0-3.42.13c-2.26.23-4.45,0.64-6.45,0.92-4,.6-7.11.35-7.52-1.66s1.86-3.59,6-5a27.68,27.68,0,0,1,7.58-1.38,24.68,24.68,0,0,1,4.6.29l1.26,0.25c0.43,0.09.69,0.19,1,.28l0.62,0.17,0.55,0.18c0.36,0.13.73,0.26,1.09,0.4a24.24,24.24,0,0,1,7.67,4.77,21.82,21.82,0,0,1,2.73,3.07c0.77,1.06,1.33,2,1.89,2.93l0.79,1.29,0.36,0.6,0,0.07,0,0h0l0,0.06v0l0.07,0.15,0.14,0.29,1,2Z"/><path class="cls-27" d="M221.06,137.94a28.92,28.92,0,0,0-7.82-5c9.86,2,17.37,9.14,22.26,18.09a52,52,0,0,1,2.62,5.57q0.84,2.43,1.51,4.87c1.93,8.27,3.05,16.39,1.74,24.74-0.26,1.53-.6,3.06-1,4.56-2.86,10.49-9.3,19.8-19.46,24.34a32.46,32.46,0,0,1-5.28,1.83,7.18,7.18,0,0,1-6.33,0c-1.44-.84-2.9-1.63-4.36-2.36s-2.93-1.42-4.4-2.07c-8.1-4.65-19.67-.16-25.66-2.81a5.83,5.83,0,0,1-2.85-2.58,21.34,21.34,0,0,1-1.76-6,12.88,12.88,0,0,0,4.39-3.16,9.43,9.43,0,0,0,2-5.41c-2.37-5.53-4.37-11.5-8.37-17-1.17-1.86-2.36-3.77-3.49-5.78a28.71,28.71,0,0,1-2.56-10,49.91,49.91,0,0,0,7.52,11.89c12.17,13.64,34.07,19.59,49.42,7.55a41.45,41.45,0,0,0,6.7-8.76c1.08-2,2-4.1,2.82-6.13a32.38,32.38,0,0,0,1.36-5.74c0.32-2.23,1.19-4.38.53-6.54a15.87,15.87,0,0,0-.4-4.65c-0.8-3.88-3.92-5.94-7.64-8.12C221.58,138.34,221.06,137.94,221.06,137.94Z"/><path class="cls-20" d="M255.26,242.51a4.63,4.63,0,0,1,1.34-2,25.6,25.6,0,0,0,7.56-9.64q0.33-.74.59-1.5c2.13-8.06-6.5-15,.18-22.57a4.5,4.5,0,0,0,.66-4.49c0-.55,0-1.1.06-1.65a25.13,25.13,0,0,1,.34-3.17c0-.44,0-0.88,0-1.31a4.91,4.91,0,0,1-.21-1.46,17.68,17.68,0,0,1,.09-1.91c0.73-7.69,5.89-13.89,8-20.63,0.14-.45.25-0.91,0.36-1.38s0.19-.94.25-1.41c2.18-4.31,6.25-9.85,8-14.43,0-1.6-.07-2.5-0.07-2.5s-0.41-2.81-1.09-7.4a5.31,5.31,0,0,0-4.73-1.35,17.32,17.32,0,0,0-5,1.56c-6.46,4-13.79,11.84-18,16.83l-1.41,1.6s0,0.4.08,1.11c1.27,4-1.27,9.12,2.1,11.77,6.85,5,5.63,13.35,3.47,21.6-0.2.75-.4,1.5-0.61,2.25a65.41,65.41,0,0,0-3.87,16.35c-0.16.57-.34,1.14-0.54,1.69a54.4,54.4,0,0,1-2.83,6.57c-0.15.41-.31,0.81-0.48,1.21s-0.35.79-.54,1.17a34.61,34.61,0,0,1-3.4,4.47,53.16,53.16,0,0,1-4,4l-4.34,3.73L233,243.3q-2,1.79-4.1,3.54t-4.15,3.48l-4.81,4c-8.58,6.79-16.28,14.54-24.61,21.66-2.78,2.37-5.63,4.67-8.6,6.84a95.81,95.81,0,0,1-30.32,9.76c-3.7.76-9.76,3.8-8.42,5.33,5.83,10.88,21,4.43,30.14-1.4,4.55-2.59,9-5.25,13.49-6.74q2.11-1.09,4.18-2.22,2.41-1.33,4.78-2.71t4.71-2.77l4.68-2.77q2.34-1.37,4.68-2.71c3.13-1.77,6.28-3.46,9.5-5q1.59-.91,3.14-1.87a71.67,71.67,0,0,0,8.81-6.38q1.83-1.43,3.53-3t3.28-3.29c1.47-1.5,2.86-3,4.19-4.66s2.63-3.31,3.87-5.1A10.14,10.14,0,0,1,255.26,242.51Z"/><path class="cls-21" d="M125.28,270.49a2.63,2.63,0,0,0-.49-1.51c-2.25,4.06-4,8.27-4,12.91a7.14,7.14,0,0,1,1.42-3.12c-0.47,4-2,7.61.5,11.2,0.44-1.63,1.56-3.66.91-5.58a76.43,76.43,0,0,0,1.91,16.83c-0.11-1.78-.76-3.7.91-5.59,0.07,4.1,2.75,7.15,5.43,10.19a17.45,17.45,0,0,1-1.37-7.94c-0.18,2.87,1.7,4.53,2.9,6.6-0.25-1.23-1.05-2.61-.22-3.56,1.34,1.53.9,3.16,2.25,4.68,0.14-.54-0.25-1.23-0.11-1.78-0.33,3.41,3.77,3.34,4.13,6.35a7.13,7.13,0,0,0,.33-3.41c0.65,1.92.07,4.1,2.1,5.22-0.25-1.23,0-2.32-.22-3.55,1.2,2.07.18,5.88,3.44,6.75-0.11-1.78-.07-4.1-0.18-5.87l1.6,2.76a7.13,7.13,0,0,1,.33-3.41c0.94,0.83,1,2.61,1.3,3.84-0.25-1.23,0-2.32-.22-3.55,0.8,1.38.91,3.15,1.7,4.53-0.4-.69-0.11-1.78-0.51-2.47,1.34,1.52,1.16,4.39,3.73,5.66,0.58-2.17-1.16-4.39-.58-6.56a14.11,14.11,0,0,1,1.16,4.39c0.44-1.63-.9-3.16.08-4.64,1.49,1,1.45,3.3,3.62,3.88-0.11-1.78.18-2.86,0.07-4.64,1.63,0.44,1.89,1.67,2.14,2.9-0.25-1.23,0-2.32-.22-3.55,1.34,1.52,1.3,3.85,3.33,5-0.25-1.23.18-2.86-.07-4.1a5.61,5.61,0,0,0,2.14,2.9c1-1.48-.76-3.7,1.16-4.35,1.23-.25,1.49,1,1.74,2.21-0.25-1.23,0-2.32-.22-3.56-0.29,1.09.51,2.47,0.76,3.7,1-1.49-1.16-4.39,2-5.29,2,0,1.74,1.77,2,3.2a16.66,16.66,0,0,1-.86-1.84c0.75,1,.64,2.67,1.78,3.3,0.19-1.85,1.05-4.5,2.49-5.7a7.12,7.12,0,0,0,.51,3.2c0.18-2.18,1-4.89.49-7.25,1.09,1.29,1.61,2.69,2.77,4-1.16-2.34.72-7.55,3.24-8-0.09,1.24.93,2.16,1.51,3.1-0.14-1.35-1.07-2.56-1.17-4,1.24,1.23,3.23,2.92,4.91,3.07-0.29-1.39-1.6-2.78-1.31-4.37a5.49,5.49,0,0,0,3.13,1.91,9.23,9.23,0,0,1-.74-2.09c1.16,1.08,3.79.7,4-1.13,0.12-1.25-1.36-1.69-1.77-2.75a5.83,5.83,0,0,0,1.41,1.65c-1.09-2.94-2.87-5.49-1.93-8.74,0.57,1.45,1.39,4.69,3.46,3.93-0.33-.77-2-2.5-1-3.13,0.31-.18,4.6,2,2.47-0.86,0.22,0.26.76,0.61,1.09,1a11.57,11.57,0,0,0-.11-1.69c0.61,1.14,3,2.34,3.28.65-0.15,0-.15,0,0,0a0.33,0.33,0,0,1,.19.16c-0.3-.56-0.62-1.17-0.91-1.83-0.09,0,0,.25-0.2.24a8.93,8.93,0,0,1-1.41-2.08,11.6,11.6,0,0,1,0,2.5,4.27,4.27,0,0,0-2.69-2c0,0.23,0,.49,0,0.7a8.58,8.58,0,0,0-1.88-.83,5.44,5.44,0,0,0-.16,1.66c-1.43-2.18-3.11,0-4.17,1.21-0.1-.19-0.49-0.88-0.49-0.88-1.23.25-1.52,1.34-1.81,2.43-2.83-2.5-5.65-5-7-8.85,0.36,3-.37,5.73.68,8.34-0.94-.84-1.74-2.21-2.68-3a3.1,3.1,0,0,1,.91,3.16,6.79,6.79,0,0,0-2-3.45c-0.29,1.09.11,1.78,0.36,3-0.25-1.23-2.43-1.81-1.85-4a2.06,2.06,0,0,0,.36,3c-0.94-.83-1.74-2.21-2.68-3a7.73,7.73,0,0,1,1,2.61,5.61,5.61,0,0,1-2.14-2.9,5.08,5.08,0,0,1-.18,2.86c-0.4-.69-1.49-1-1.89-1.67a9.61,9.61,0,0,0-.47,4c-0.25-1.23-.65-1.92-0.9-3.16a3.59,3.59,0,0,0-.87,3.26c0.29-1.09-.51-2.47-0.76-3.7a9.58,9.58,0,0,0-.47,4,7.77,7.77,0,0,0-1-2.61,7.14,7.14,0,0,0-1.42,3.12,4.27,4.27,0,0,1-1.89-1.67c-0.29,1.09.11,1.78,0.36,3-1.19-2.07-.32-5.33-1.52-7.4-1.67,1.89.47,4.79-.66,6.82a5.62,5.62,0,0,1-2.14-2.9l-0.73,2.72c0.29-1.09-.51-2.47-0.76-3.7-1.38.8-1.27,2.57-1.56,3.66-2.72-.73,1.42-3.12-0.22-3.55-0.69.4-1,1.49-1.27,2.57a5.62,5.62,0,0,0-2.14-2.9,7.17,7.17,0,0,0-1.42,3.12,3.1,3.1,0,0,1-.9-3.15l-0.44,1.63c-1.09-.29-1.34-1.52-1-2.61-0.83.94-2.21,1.74-3,2.68l0.15-.54c-2.21,1.74-4.32,5.25-2.87,8.56-0.94-.83-2.28-2.36-1.85-4,1.2,2.07-1.52,1.34-1.67,1.88,0.83-.94.44-1.63-0.65-1.92l-0.29,1.09c-3.52-2.11-.72-6-1.77-8.63-1.52,1.34-1,3.81-2.54,5.15a12.38,12.38,0,0,1,.62-4.5l-0.44,1.63c-0.25-1.23.18-2.86-.07-4.1a5.08,5.08,0,0,0-1.27,2.57l0.73-2.72a3.38,3.38,0,0,0-1.12,2c-0.4-.69-0.11-1.78-0.51-2.46-0.94-.83-0.69.4-0.83,0.94a7.14,7.14,0,0,0,.33-3.41l-0.29,1.09c-3.52-2.11-3-6.06-4.49-9.36,1.45,3.3-2.21,1.74-3.48,4.31,1-1.49,2.72.73,3.58-.92"/><path class="cls-17" d="M113.27,119.4s0.14-.18.43-0.49a6.77,6.77,0,0,1,1.39-1.17,7.83,7.83,0,0,1,6-.73,21,21,0,0,1,5.14,2.32c0.62,0.35,1.09.61,1.48,0.79l0.58,0.28-0.64.11a8.15,8.15,0,0,1-1.79,0,32,32,0,0,1-5.4-1.07,13.87,13.87,0,0,0-4.93-.55,13.24,13.24,0,0,0-1.62.31Z"/><path class="cls-9" d="M196,252.35a0.37,0.37,0,0,0,.11.44,1.25,1.25,0,0,0,.25.25h-0.24a35.81,35.81,0,0,0,3.43-7.74c0.18-.56.38-1.13,0.52-1.76l0.27-1,0.22-1.1a25.51,25.51,0,0,0,.48-6,32.74,32.74,0,0,0-1.61-8.85,42,42,0,0,0-4.5-9.47,48.41,48.41,0,0,0-14.43-14.55,50.58,50.58,0,0,1,7.92,5.37,49.05,49.05,0,0,1,7.68,8,40.42,40.42,0,0,1,5.51,9.75,29.91,29.91,0,0,1,2.08,9.64A23.94,23.94,0,0,1,203,242l-0.32,1.21-0.38,1.08a15.68,15.68,0,0,1-.8,1.87,27.31,27.31,0,0,1-5.23,7l-0.1.11-0.05-.11c0-.08-0.1-0.2-0.16-0.34A0.43,0.43,0,0,1,196,252.35Z"/><path class="cls-9" d="M161.61,189.07l-2.43-.58-0.12,0-0.06,0h0l0,0c1.67-2.85.47-.79,0.84-1.42h0l0.24,0.07,0.43,0.13c0.28,0.09.54,0.18,0.8,0.29s0.53,0.22.81,0.36l0.93,0.47a9.31,9.31,0,0,1,2.59,2.17,8.64,8.64,0,0,1,1.85,4.45,9.76,9.76,0,0,1-.06,2.68,10.11,10.11,0,0,1-.77,2.57,10.63,10.63,0,0,1-3.24,4,10.91,10.91,0,0,1-4.09,1.89,9.87,9.87,0,0,0,3.47-2.35,9.54,9.54,0,0,0,2.28-4,8.81,8.81,0,0,0,.09-4.37,8,8,0,0,0-1.59-3.2,10,10,0,0,0-1.84-1.67l-0.39-.28c-0.25-.16-0.3-0.22-0.45-0.33s-0.48-.39-0.69-0.58l-0.63-.59-0.32-.31-0.08-.08,0,0v0c-0.06.11,0.15-.26,0.27-0.5l0.26-.41,0.09-.15h0l0.17,0.17Z"/><path class="cls-6" d="M310.89,174.61c0.65-1.24,1.92-2.19,1.53-3.69,0.13-.3.28-0.59,0.42-0.88,3.62-7.29,7.3-16,1.44-24.28-7.5-10.62-34.6,5.5-34.6,5.5L268.4,203.17c-6.21,13.67,4.77,22.44,19.54,21.1,4.62-.42,7.67-2.28,9.65-4.7a13,13,0,0,0,1.07-1.51c0.08-.3.16-0.59,0.24-0.89,0.29-.54.6-1.07,0.89-1.58l0.42-.76a3.49,3.49,0,0,0,.41-0.91,13.38,13.38,0,0,0-.36-4.39,8.24,8.24,0,0,1-.11-0.83c0.16-.26.31-0.53,0.47-0.8,3.31-.93,2.27-5.62,3.21-8.25l0.53-.46c0.9-.76,1.9-1.45,2.85-2.16,0.08-.26.14-0.53,0.19-0.8s0.1-.55.14-0.83,0.07-.57.09-0.86-0.07-.61-0.1-0.91-0.06-.62-0.09-0.94-0.12-.58-0.16-0.87-0.07-.58-0.09-0.87a7.41,7.41,0,0,1-.65-2.73,8.16,8.16,0,0,1,0-.91,7.67,7.67,0,0,1,.6-2.75c0.11-.29.24-0.58,0.37-0.87a6.39,6.39,0,0,0,.29-0.63c0.09-.22.16-0.44,0.23-0.66s0.2-.5.32-0.76,0.23-.51.35-0.77c0.34-2.15,2.25-3.59,1.88-5.66ZM289.15,216.2l-0.13-.1,0,0v0.16a8.31,8.31,0,0,1-4.28-.12c-6.19-1.68-10.73-8.13-9.91-13.39,0-.25.08-0.5,0.15-0.75,1.14-4.39,6-5.41,10.49-3.2a14.75,14.75,0,0,1,4.54,3.54c0.32,0.37.62,0.75,0.9,1.14s0.54,0.79.78,1.2a7,7,0,0,1,1.55,3.73c0.77,0.6.06,1.63,0,2.31,0,0.27-.05.54-0.08,0.82s-0.07.56-.1,0.85a6,6,0,0,1-.57,1.31A5.5,5.5,0,0,1,289.15,216.2Z"/><path class="cls-4" d="M268.4,203.17a19.71,19.71,0,0,0-1.35,7.29,12.53,12.53,0,0,0,1.63,5.53,14.35,14.35,0,0,0,7.23,5.64,25.11,25.11,0,0,0,9.75,1.47l1.55-.09c0.24,0,.6,0,0.74,0l0.76-.09a15.09,15.09,0,0,0,3.14-.79,11.07,11.07,0,0,0,5.68-4.69l-0.14.32,0.25-.88,0-.11,0-.1,0.53-1.14,0.34-.72,0.28-.8,0,0.66-0.18-.94a11.59,11.59,0,0,1,.12-5.39l0.09-.29,0.31-.29,0.68-.64,0.14-.13,0.1-.06a4.12,4.12,0,0,0,2-2.71,43.68,43.68,0,0,0,.36-4.52l0-.46,0.32-.32c0.89-.89,1.79-1.59,2.71-2.43l-0.15.17,0.29-.39,0.29-.45-0.17.47c0.08-.57.16-1.12,0.23-1.7v0.27l-0.09-.94c0-.55,0-0.6,0-1.15l0.06-1,0.09-1,0.07,0.51a7.56,7.56,0,0,1-.22-4.45l0-.13,0-.07,0.74-1.67,0.35-.78,0.29-.78,0.24-.9,0.14-.83c0.07-.5.17-1.25,0.3-1.88v0.08a15.16,15.16,0,0,1,1.56-4.88,39.16,39.16,0,0,0,2-4.32l0-.08,0,0A72.78,72.78,0,0,0,315,163a23.08,23.08,0,0,0,1.59-8,15.31,15.31,0,0,0-2.09-7.69L314,146.4l-0.14-.22-0.05-.08-0.08-.09-0.3-.38-0.3-.38-0.36-.33a4.37,4.37,0,0,0-.75-0.61,8.88,8.88,0,0,0-3.6-1.46,21.8,21.8,0,0,0-7.92.27,52,52,0,0,0-7.53,2.1,91.56,91.56,0,0,0-13.28,6A94.31,94.31,0,0,1,292.33,145a55.36,55.36,0,0,1,7.42-2.41,24.31,24.31,0,0,1,8.18-.73,11.07,11.07,0,0,1,4.12,1.26,8.37,8.37,0,0,1,3.13,3.1c0.19,0.3.4,0.58,0.58,0.9l0.51,1a17.4,17.4,0,0,1,.86,2,16.81,16.81,0,0,1,.82,4.37,23.56,23.56,0,0,1-1.35,8.75,72.54,72.54,0,0,1-3.39,8l0-.11a39.72,39.72,0,0,1-2,4.59A13.2,13.2,0,0,0,310,180v0.07c-0.11.62-.16,1.13-0.25,1.87l-0.16,1-0.22.91V184l0,0.15,0,0.11-0.08.22-0.15.44-0.38.92L308,187.49l0.06-.19a5.22,5.22,0,0,0,.21,3.12l0.09,0.22,0,0.27-0.07.94,0,1,0,0.77,0.11,0.93v0.27c-0.06.59-.13,1.22-0.2,1.76l0,0.25L308,197l-0.32.52-0.36.51-0.06.09-0.08.08c-0.89.82-1.87,1.63-2.62,2.41l0.36-.77a39.28,39.28,0,0,1-.35,4.85,6.62,6.62,0,0,1-1.11,2.55,7.55,7.55,0,0,1-2,1.81l0.24-.19-0.86.82,0.39-.58a9.38,9.38,0,0,0,0,4.09l0.16,0.85,0.07,0.37-0.1.29-0.35,1-0.4.87-0.54,1.14,0.08-.21-0.26.9-0.06.21-0.08.11c-0.51.69-1,1.43-1.49,2a13.41,13.41,0,0,1-1.76,1.65,13.71,13.71,0,0,1-3.82,2.1,17.24,17.24,0,0,1-3.72.88l-0.88.09-0.86,0-1.56.05A24.65,24.65,0,0,1,275,223.42a15.24,15.24,0,0,1-7.47-7,14,14,0,0,1-1.12-6.08A20.78,20.78,0,0,1,268.4,203.17Z"/><path class="cls-28" d="M285.44,198.78c-4.52-2.21-9.35-1.19-10.49,3.2-0.06.25-.11,0.5-0.15,0.75a9.46,9.46,0,0,1,6.38.9c4.06,2,7.38,6.36,7.83,10.48a8.36,8.36,0,0,1,0,1.75v0.22l0,0,0.13,0.1a5.5,5.5,0,0,0,3.28-2.52,6,6,0,0,0,.57-1.31c0-.29.07-0.57,0.1-0.85s0.06-.55.08-0.82c0.08-.68.8-1.72,0-2.31a7,7,0,0,0-1.55-3.73c-0.24-.41-0.5-0.81-0.78-1.2s-0.59-.77-0.9-1.14A14.75,14.75,0,0,0,285.44,198.78Z"/><path class="cls-29" d="M293.22,209.18c0-.25-0.05-0.5-0.07-0.75s0-.51-0.06-0.77a4.18,4.18,0,0,0-1.43-3c-0.24-.41-0.5-0.81-0.78-1.2s-0.59-.77-0.9-1.14a14.75,14.75,0,0,0-4.54-3.54c-4.52-2.21-9.35-1.19-10.49,3.2-1.4,5.38,3.28,12.38,9.76,14.14,3.49,0.95,6.17-.07,7.56-2.16a6,6,0,0,0,.67-1.37,6.07,6.07,0,0,0,.21-0.78,7,7,0,0,0,.11-0.84,8.7,8.7,0,0,0,0-.88C293.28,209.79,293.26,209.48,293.22,209.18Zm-8.69,4.65c-4.85-1.32-8.35-6.55-7.3-10.57,0.86-3.28,4.47-4,7.85-2.39a10.81,10.81,0,0,1,5.86,7.84C291.32,212.32,288.71,215,284.53,213.83Z"/><path class="cls-30" d="M293.22,209.18c0-.25-0.05-0.5-0.07-0.75s0-.51-0.06-0.77a4.18,4.18,0,0,0-1.43-3c-0.24-.41-0.5-0.81-0.78-1.2s-0.59-.77-0.9-1.14a14.75,14.75,0,0,0-4.54-3.54c-4.52-2.21-9.35-1.19-10.49,3.2-1.4,5.38,3.28,12.38,9.76,14.14,3.49,0.95,6.17-.07,7.56-2.16a6,6,0,0,0,.67-1.37,6.07,6.07,0,0,0,.21-0.78,7,7,0,0,0,.11-0.84,8.7,8.7,0,0,0,0-.88C293.28,209.79,293.26,209.48,293.22,209.18Zm-8.69,4.65c-4.85-1.32-8.35-6.55-7.3-10.57,0.86-3.28,4.47-4,7.85-2.39a10.81,10.81,0,0,1,5.86,7.84C291.32,212.32,288.71,215,284.53,213.83Z"/><path class="cls-31" d="M284.53,213.83L285,213.9a6.58,6.58,0,0,0,1.26.09,5,5,0,0,0,1.9-.4A3.86,3.86,0,0,0,290,212c2-3.29-1.26-9.5-6.65-11.07a5.26,5.26,0,0,0-3.82.27,3.8,3.8,0,0,0-1.86,2.88,8.57,8.57,0,0,0,1.89,6.12,10.91,10.91,0,0,0,3.45,3,8.48,8.48,0,0,0,1.15.53l0.41,0.16-0.43-.11a8,8,0,0,1-1.22-.4,10.73,10.73,0,0,1-5.66-5.56,7.79,7.79,0,0,1-.66-3.86l0.09-.53c0-.1,0-0.15.06-0.3l0.07-.24a5,5,0,0,1,.44-1,4.48,4.48,0,0,1,1.67-1.69,6.31,6.31,0,0,1,4.74-.44,9.09,9.09,0,0,1,2.2.9,11.38,11.38,0,0,1,1.87,1.34,11.8,11.8,0,0,1,2.64,3.37c1.29,2.4,1.42,5.26.16,7a4.3,4.3,0,0,1-2.23,1.66,5.12,5.12,0,0,1-2,.22,6.32,6.32,0,0,1-1.26-.23Z"/><path class="cls-31" d="M293.22,209.18l0.07,0.59a4.53,4.53,0,0,1,0,.72,5.55,5.55,0,0,1,0,1,6,6,0,0,1-.87,2.6,5.72,5.72,0,0,1-2.85,2.32,8.14,8.14,0,0,1-4.48.25,13.77,13.77,0,0,1-4.71-2,13.91,13.91,0,0,1-6.26-9.7c0-.35-0.06-0.69-0.05-1s0-.72.07-1.07l0.18-.94a10.71,10.71,0,0,1,.34-1,6.07,6.07,0,0,1,2.69-3,7.44,7.44,0,0,1,3.66-.79,10.28,10.28,0,0,1,3.35.69A13.68,13.68,0,0,1,289.2,201a16.7,16.7,0,0,1,2.62,3.54l0,0a4,4,0,0,1,1.17,1.88,6.46,6.46,0,0,1,.21,1.55l0.06,1.24L293.06,208a4.35,4.35,0,0,0-1.52-3.16h0l0,0a17.41,17.41,0,0,0-2.76-3.24,13.41,13.41,0,0,0-4.72-2.8,7.77,7.77,0,0,0-6.1.24,4.92,4.92,0,0,0-2.11,2.42c-0.09.25-.19,0.58-0.25,0.77l-0.17.94,0,0.85c0,0.29,0,.6,0,0.9a13.27,13.27,0,0,0,5.6,8.94c2.73,1.93,6,2.8,8.37,2a5.28,5.28,0,0,0,2.72-1.94,5.78,5.78,0,0,0,1-2.4,5.5,5.5,0,0,0,.12-1,4.54,4.54,0,0,0,0-.72v-0.59Z"/><path class="cls-32" d="M285.7,164.26a8.11,8.11,0,0,1,1.75.09,7.73,7.73,0,0,1,1.6.44,21.65,21.65,0,0,1,6.62,3.32c0.25,0.35.52,0.72,0.78,1.09a6.67,6.67,0,0,1,2.16,5.12,9.52,9.52,0,0,1-.23,1.86c-1.25,2.56-1.65,5.34-3.61,7.25-0.39.55-.79,1.08-1.19,1.59s-0.78,1-1.15,1.42l-1.06,1.25a45.38,45.38,0,0,0-3,3.88c-0.21.39-.41,0.79-0.61,1.19-1,2.71,1.12,4.14,3.43,3.9a3.3,3.3,0,0,1-.93-2.84,4.53,4.53,0,0,1,.48-1.45c0.31-.36.63-0.71,1-1.05s0.68-.68,1-1l1.18-1,1.18-1c0.35-.35.7-0.68,1-1l1-.94c0.5-.45,1-0.92,1.42-1.4a37.75,37.75,0,0,0,5.77-8.28q0.45-.74.88-1.5c0.58-1,1.12-2.1,1.62-3.23,0.15-.41.28-0.81,0.41-1.22a19.75,19.75,0,0,0,.76-3.81q-0.16-.66-0.35-1.3a14.6,14.6,0,0,0-.09-1.53,14.42,14.42,0,0,0-.24-1.47,11.73,11.73,0,0,0-.61-4.4,14.12,14.12,0,0,0-2.66-4.46,7.21,7.21,0,0,0-1.24-1,7.72,7.72,0,0,0-1.57-.78,7.08,7.08,0,0,0-1.59-.35c-5-.56-8.21,2.25-12.24,3.62a6.8,6.8,0,0,0,1.3,1,16,16,0,0,1,5.07,2.33,9.11,9.11,0,0,1,1.34,1.15c0.66,0.78,1.65,1.66,1.35,2.8a4.74,4.74,0,0,1-.65,1.83c-1.25.72-2.7,1.55-4.14,0.47-0.6-.21-1.2-0.47-1.8-0.74-1.79-.81-3.62-1.69-5-1.61a2.91,2.91,0,0,1-1,1.56,4.34,4.34,0,0,1,.89.29A2,2,0,0,0,285.7,164.26Z"/><path class="cls-33" d="M289.28,195.12a3.88,3.88,0,0,1,.07-3.2l0.08-.1c0.44-.54.74-1,1.21-1.46l0.57-.59,0.28-.28,0.14-.14,0.21-.17c0.78-.65,1.56-1.25,2.45-1.87l0.09-.06,0.23-.08a7.69,7.69,0,0,0,1.25-.59l-0.17.11,1-.79c0.34-.28.82-0.63,1.25-0.93a21.33,21.33,0,0,0,2.84-2.15,7.58,7.58,0,0,0,.93-1.11l0,0,0,0,0.61-.79,0.31-.4,0.08-.1h0l-0.08.13h0l0,0,0-.06,0.14-.22,0.56-.91,0.28-.46,0,0h0l-0.05.1h0l0-.06,0.06-.12,0.12-.25a13.61,13.61,0,0,0,.82-1.92l0.73-2.25,0.56-.65a0.55,0.55,0,0,0-.27.29s0,0,0-.07a2.54,2.54,0,0,0,0-.57l0-.25,0.05-.17,0.16-.52,0-.13,0-.12,0-.07,0.12-.3a5.49,5.49,0,0,1,.69-1.18l-0.17.4a26.28,26.28,0,0,0,.49-3.5l0,0.2-1-4.75-0.77-4.71-1.37-8.55,2.07,8.23,1.2,4.65,1.4,4.73,0,0.09v0.09a26.77,26.77,0,0,1-.21,3.87l0,0.18-0.13.2a3.59,3.59,0,0,0-.37.79l-0.07.22,0,0.06c0-.07,0,0,0,0l0,0.13-0.13.53,0-.4a4.63,4.63,0,0,1,.05,1,2.36,2.36,0,0,1-.15.69,1.62,1.62,0,0,1-.75.85l0.54-.63L307,177.18a15.21,15.21,0,0,1-.83,2.28l-0.11.25-0.05.13v0l-0.07.13,0,0.06-0.26.47-0.52.93-0.13.23,0,0.06,0,0-0.1.16-0.08.1-0.3.41-0.59.8,0-.06a9.45,9.45,0,0,1-1.25,1.52,20.25,20.25,0,0,1-3.21,2.42c-0.46.3-.79,0.53-1.18,0.81l-1,.73-0.12.08,0,0a7.68,7.68,0,0,1-1.8.63l0.28-.13c-1,.53-1.84.95-2.75,1.41-0.35.17-.86,0.5-1.32,0.77s-0.93.64-1.45,1l0.06-.07A3.4,3.4,0,0,0,289.28,195.12Z"/><path class="cls-34" d="M285.13,185.33c1.38-2.86,5.92-6.09,4.23-10-0.73-1.71-2.93-2.52-4.64-2.88a11.33,11.33,0,0,0-2.7,5.19c1.58,0.82,1.93,1.63,3,2.89"/><path class="cls-35" d="M287,182.44c0.71-2.66-2.33-3.46-5-4.83a18.85,18.85,0,0,1,4.51-8.66c2.85,0.61,6.52,2,7.74,4.82,1.44,3.36.17,6.41-1.72,9.22-0.27.4-.55,0.8-0.84,1.19-2.72,4.57-7.55,7.36-12.44,7l-1.44.12s0.52-.37,1.3-1c3.44-1.52,4.86-4.63,7.24-6.63A4.09,4.09,0,0,0,287,182.44Z"/><path class="cls-17" d="M276.3,192.22s1.15-.89,2.76-2.33a27.51,27.51,0,0,0,5.05-5.69,6.15,6.15,0,0,0,.65-1.61,1.76,1.76,0,0,0-.11-1.18,4.5,4.5,0,0,0-2-1.66c-1.72-.86-3.09-1.43-2.93-2.22s1.67-.94,4-0.17a7.19,7.19,0,0,1,1.82,1,4.65,4.65,0,0,1,1.65,2,4.24,4.24,0,0,1,.09,2.9,7.73,7.73,0,0,1-1.21,2.24,22.3,22.3,0,0,1-6.46,5.1A33.53,33.53,0,0,1,276.3,192.22Z"/><path class="cls-17" d="M284.55,153A28.35,28.35,0,0,1,288,151.4a23.34,23.34,0,0,1,9.57-1.95,9.6,9.6,0,0,1,6.15,2.41,11.58,11.58,0,0,1,3.27,6.47,27.45,27.45,0,0,1,.3,7.32l0,0.45,0,0.23v0.17l0,0.14-0.15.87-0.3,1.73-0.3,1.72c-0.11.65-.24,1.15-0.36,1.73l0-.3a12.43,12.43,0,0,1-.25,2.67l-0.15.64c0,0.13,0,.15-0.11.38l-0.09.28-0.37,1.1,0-.18c-0.65,3.18-2.56,5.4-3.89,7.18l0.13-.22a8.2,8.2,0,0,1-1.35,1.84,5.28,5.28,0,0,0-.8,1l-0.13.31-0.13.14a8.49,8.49,0,0,1-3.52,2.24l0.11-.05c-0.56.22-1.06,0.4-1.5,0.55a11,11,0,0,1-1.09.26,0.64,0.64,0,1,1-.48-1,10.49,10.49,0,0,1,.93-0.67c0.34-.25.74-0.51,1.18-0.79l0.11-.05a8.22,8.22,0,0,0,2.47-2.07l-0.26.45a6,6,0,0,1,1.16-1.94,6.66,6.66,0,0,0,.9-1.3l0-.09,0.09-.13,1-1.46c0.33-.46.66-1,1-1.48a10.2,10.2,0,0,0,1.34-3.21l0-.1,0-.08,0.39-1.09,0.1-.28s0-.13.06-0.19l0.13-.51a10.17,10.17,0,0,0,.25-2.1v-0.16l0-.14c0.13-.54.29-1.15,0.39-1.63l0.36-1.7,0.36-1.72,0.18-.86,0.1-.76a26.66,26.66,0,0,0,.09-6.75,10,10,0,0,0-2.39-5.67,8.33,8.33,0,0,0-5.14-2.41,23.34,23.34,0,0,0-9.35,1.14A30,30,0,0,0,284.55,153Z"/><path class="cls-29" d="M324.92,150.68c-0.87-4-5.69-6.32-10.77-5.22l-0.53.14a3.82,3.82,0,0,1,1,1.6c3.83-.8,7.44,1,8.09,4s-1.93,6.14-5.78,7-7.5-.93-8.15-3.95a4.45,4.45,0,0,1-.05-1.55,3.86,3.86,0,0,1-1.82-1.63,6.16,6.16,0,0,0-.36,3.67c0.87,4,5.69,6.32,10.77,5.22S325.79,154.67,324.92,150.68Z"/><path class="cls-31" d="M324.92,150.68l0.11,0.57a6.44,6.44,0,0,1,0,1.68,8.27,8.27,0,0,1-3.33,5.28,12,12,0,0,1-9.35,2.16,8.64,8.64,0,0,1-5.21-3,4.53,4.53,0,0,1-.47-0.69,4.61,4.61,0,0,1-.39-0.77,4.81,4.81,0,0,1-.27-0.78l-0.06-.19,0-.13,0-.11c0-.14-0.05-0.28-0.07-0.43a6.84,6.84,0,0,1,.46-3.48l0.49-1.2,0.64,1.13a3.28,3.28,0,0,0,1.54,1.35l0.44,0.19-0.07.49a3.81,3.81,0,0,0,.74,2.8,5.3,5.3,0,0,0,2.75,1.83,7.7,7.7,0,0,0,3.11.27c0.25,0,.55-0.09.82-0.13l0.73-.19a8.2,8.2,0,0,0,1.42-.59,5.72,5.72,0,0,0,3.28-4.43,4.39,4.39,0,0,0-2.69-4.11,7.92,7.92,0,0,0-4.82-.56l-0.38.07-0.1-.35a3.47,3.47,0,0,0-.84-1.46l-0.46-.48,0.63-.16a11.54,11.54,0,0,1,5.85.05,8.65,8.65,0,0,1,3.81,2.16,6.21,6.21,0,0,1,1.47,2.32,4.86,4.86,0,0,1,.2.68l0.06,0.23a6.2,6.2,0,0,0-1.89-3.06,8.43,8.43,0,0,0-3.77-1.86,11.12,11.12,0,0,0-5.55.21l0.17-.63a4.19,4.19,0,0,1,1.1,1.75l-0.48-.28a8.72,8.72,0,0,1,5.42.45,6.09,6.09,0,0,1,2.44,1.91,5.07,5.07,0,0,1,1,3.18,6.88,6.88,0,0,1-3.85,5.53,9.38,9.38,0,0,1-1.64.7c-0.3.09-.56,0.16-0.9,0.24s-0.54.11-.85,0.14a8.87,8.87,0,0,1-3.7-.3,6.56,6.56,0,0,1-3.42-2.33,5.09,5.09,0,0,1-1-3.76l0.38,0.68a4.52,4.52,0,0,1-2.1-1.91l1.12-.07a5.68,5.68,0,0,0-.43,2.85c0,0.12,0,.24.05,0.35l0,0.09v0.06l0.05,0.19a3.81,3.81,0,0,0,.23.7,4.94,4.94,0,0,0,.67,1.19,7.73,7.73,0,0,0,4.52,2.79,11.46,11.46,0,0,0,8.85-1.67,8.07,8.07,0,0,0,3.48-4.89,6.49,6.49,0,0,0,.09-1.65Z"/><circle class="cls-29" cx="322.7" cy="155.77" r="2.76" transform="translate(88.91 427.33) rotate(-75.04)"/><path class="cls-31" d="M325.36,156.48a2.74,2.74,0,0,0,0-.67,2.66,2.66,0,0,0-.74-1.52,2.42,2.42,0,0,0-2.1-.7,2.25,2.25,0,0,0-1.06,4,2.42,2.42,0,0,0,2.17.44,2.66,2.66,0,0,0,1.4-.95,2.7,2.7,0,0,0,.35-0.58,2.26,2.26,0,0,1-.17.68,2.82,2.82,0,0,1-1.33,1.47,3.08,3.08,0,0,1-3.08-.13,3.28,3.28,0,0,1-1.4-3.64,3.55,3.55,0,0,1,.45-1,3.27,3.27,0,0,1,2.57-1.43,3.09,3.09,0,0,1,2.73,1.42,2.81,2.81,0,0,1,.42,1.93A2.3,2.3,0,0,1,325.36,156.48Z"/><ellipse class="cls-36" cx="323.42" cy="155.35" rx="1.02" ry="0.92" transform="translate(89.88 427.74) rotate(-75.05)"/><path class="cls-21" d="M293.39,160.45l0.07,0.06,0-.08C293.32,160.24,293.31,160.25,293.39,160.45Z"/><path class="cls-21" d="M285.07,171.23l0-.06v0.06Q285.18,171.51,285.07,171.23Z"/><path class="cls-21" d="M254,28a9.22,9.22,0,0,0,1.22-1.19A6.12,6.12,0,0,0,254,28Z"/><path class="cls-21" d="M207.36,12.5c0.53,0.78,1,1.57,1.51,2.38A6.21,6.21,0,0,0,207.36,12.5Z"/><path class="cls-21" d="M263.51,29.56c0.44-.37.88-0.73,1.33-1A6.79,6.79,0,0,0,263.51,29.56Z"/><path class="cls-21" d="M110.36,106.35c1.7,0,2-1.07,3-2.75,3.46-6,3.57-11.31,8.85-16.56"/><path class="cls-21" d="M115.39,123.91c-0.37-1.36-4.52-6.15-5-7.58a11.1,11.1,0,0,0,1.74-1.19c-0.59,0-1.3-.18-1.86-0.2,1.19-1.92,3.49-3.41,4.22-5.71-0.62.26-1.41,0.37-2.05,0.59a26.59,26.59,0,0,1,3.1-4.37c-0.75.18-1.73,0.19-2.46,0.44a15.62,15.62,0,0,0,2.66-2.84c-0.58.23-1.48,0.41-2.07,0.59a33.36,33.36,0,0,0,1.64-3.57,4.43,4.43,0,0,1-1.19.39c0.34-.81.69-2.11,1.14-3a3.89,3.89,0,0,0-.25.89,24.75,24.75,0,0,0,1.73-3.64,10.14,10.14,0,0,1-2-.16c-0.19.49,0.86-.71,1-0.86a1.82,1.82,0,0,0-1-.25,24.37,24.37,0,0,0,1.71-2.26,32.09,32.09,0,0,1-3.62.65c3.71-2.8,6.78-10.51,11.49-8.73,0.11,5.84-3.49,12.77-5.28,18.53-1.22,3.94-3.55,15.93-6.4,18,1.4-.46.67-1.12,0.93-2.14"/><path class="cls-21" d="M252,148c-1.43-9.33-10.14-17.74-9.07-27.35a14.92,14.92,0,0,0,3.62,4c-0.25-2.3-.84-5.49.48-7.58a6.47,6.47,0,0,0,4.28,4.87c-0.23-4.09-3.23-7.42-2.81-11.66a28.47,28.47,0,0,0,7.29,5c-1.2-5.86-7-9.72-9-14.72,2-.32,4.26.66,6.35,1.07-2.24-2.51-7.83-3.08-9.16-6.34,1.77-1,4.05-.44,6,0.21-1.32-2.78-5.07-4.93-6.9-7,7.57-3,19.86,9.26,24.09,14.68-0.75-3.87-4-8.25-2.67-12.43,1.17,3.48,4.49,5.54,5.64,8.86-0.28-3.73-2.21-6.91-1.13-10.74,1,2.33,1.93,4.59,4,6a24.12,24.12,0,0,1-.52-5.19c1.45,1.78,2.35,4.14,4.67,4.65A15.73,15.73,0,0,0,275.6,87c5.69,4.31,9.62,11.65,13.25,17.94-0.19-6-1.2-11.84-1.36-17.74,1.09,3.28,3.76,6.82,6.62,8.18,0.67-3-1.12-5.94-.69-8.93,1.12,2.61,3.43,4.68,5.34,6.64-0.49-3-.95-6.16-1.48-9.14,2.1,2.31,3,5.62,5,8,1.57,1.84,3.6,2.86,5,4.89-0.32-3.11-.34-6.37-0.78-9.51,8.91,10.38,12.51,28,8.79,41.7,0.47-1.76.94-3.52,1.39-5.28,1.07,3.29,4.11,9.21,3.52,12.55a13.58,13.58,0,0,0-2.81-2.91c-0.08-.2-0.08-0.2,0,0A17.3,17.3,0,0,1,319.26,144a19,19,0,0,1-2.06-4.22,42.23,42.23,0,0,1,1.59,9.36c-0.6-.86-1.5-1.7-2-2.54a24.93,24.93,0,0,1,1.71,8,5.83,5.83,0,0,1-1.67-.87,29.63,29.63,0,0,1-.55,4.53c-0.61-1.94-1.16-3.89-1.58-5.87-0.59,3.51,1.47,6.29.84,10-0.36,2.14-1.59,4-1.59,6.5-0.43-2.84-1.76-5.9-2.53-8.41,0,0.44.16,0.93,0.21,1.39-1.56-1.84-2.28-3.61-4.11-4.86,0.07,0.35.07,1.59,0.14,2.06-1.26-6.72-14.18-7.06-19.07-8.08s-7.34-3.2-12.16-2.34a132.17,132.17,0,0,1-14.14,2.21,13.57,13.57,0,0,0,2.79-3.48"/><path class="cls-21" d="M248.81,153.67c1.34-.1,2.58,14.66,4.17,17.06,0.23-2.41-.49-5,0.92-7.16,1.4,5.57-2.33,19.52,1.37,22.91,0.31-2.06.53-4.27,1.8-6.16,0.1,0.8.83,2.36,0.92,3.11,0.23-1.08.84-2.27,1.05-3.34a18.94,18.94,0,0,0,1.78,7,26.15,26.15,0,0,0,1.28-7.47,29.37,29.37,0,0,1,.33,3.18c0.65-2.6.35-5.06,1.65-7.39,2.18,3.54,1,10.61,2,14.78,1.65-5.06.86-10.83,2.89-15.91,0.11,1.93.14,3.79,1.16,5.21,0.46-2.81.77-6,1.32-8.76a77.36,77.36,0,0,0,1.31,8.09c0.84-3.42.52-7.44,1.78-11.13,1.11,1.88,1.08,4.69,2.27,6.76,0.85-4.05.35-8.44,1.09-12.55,0.34,2.52,1,6,2.14,7.61,0.65-3.67,4.32-9.3,5.65-13,0.06,3.12-2.72,7.12-1.74,9.77,0.57-2.52,4-6.15,4.62-8.93,1.2,2.14-2.18,7,.24,6.49,0.16-3.1,3.82-7.5,3.75-10.72a44.14,44.14,0,0,0,2.27,3.9q0.11,0.29,0,0a48.23,48.23,0,0,0-1.26-5c0.55,0.78,1.29,1.22,1.87,2,0-.72.48-2,0.47-2.74a5.12,5.12,0,0,1,3.64,4.27c-0.19-2.88-1.53-4.87-1.88-7.91a11.39,11.39,0,0,0,2.62,1.55,9.9,9.9,0,0,0-1.68-2c-0.09-.2-0.08-0.2,0,0l0.3,0.59q0.15,0.28,0,0c-1.79-3.14-5.64-2.32-8.51-3.93-4.19-2.35-4.88-6.93-7.82-10.34,0.12,0.76.08,1.54,0.16,2.38-1.71-3.78-3.32-8.92-7.24-10.57,1.48,3,2.43,6.71,1.18,10.28-1.75-1.32-2.94-3.46-4-5.3-2,2.79.33,7.24-1.67,10.37-0.36-1.46-1.48-2.11-2-3-0.21,1.24-1,3.16-1,4.07,0-6.11-2.49-12.18-2.36-18.6-1,5.55-3.06,12.71-3,18.06a20.15,20.15,0,0,0-.82-2.38c-0.85,2-.51,3.81-1.22,6.11-0.1-.29-1.35-2.61-1.8-3.57,0.13,1.41.06,3.07,0.18,4.47-0.53-3.43-4-7.61-6.08-9.49,0.36,3.49,3.11,6.21,3.66,10a1.85,1.85,0,0,0-1.09.18c-0.6-.7-1.49-1.2-2-1.74a23.2,23.2,0,0,0,1.67,3.53,8.5,8.5,0,0,0-2.21-1.44c0.52,1.93,0,3.59-1.81,3.78,1.59-.28,1.89-1.46,3.06-2.64"/><path class="cls-21" d="M110.36,108.84a1.8,1.8,0,0,1,1-1c-0.69,0-.08,0-0.21-0.41-1.67,1.75-3.91,2.7-5.9,3.86,0.84-3.47,3.5-7.09,4.07-10.87-1.49.26-3.19,1.82-4.58,2.66,0.55-1.41.72-3.08,1.43-4.38a14.19,14.19,0,0,0-1.93,1c0.84-2.41,2.49-5.51,3.45-8.16-2,.29-3.92,2.5-5.51,4.11,1.72-3,3.78-6,3.69-9.4-2.31-.67-4.67,3.47-6.25,5.61-1.42-4.59,4.6-11.83,6.28-16.25-3.15,1.64-4.93,5.07-6.83,8.17-1.32-7.47,9.78-17.94,14-23.47-2,1.63-4.2,5.87-6.33,4.93,3.45-6.29,9.28-9.72,14.11-14.44-2.27.78-4.45,3-6.46,2.35,3.05-3.72,9.64-6.13,14.22-7.31-2.35.54-4.58-.22-6.8-1,3.9-3.41,11.38-5.09,16-6.14-1.46-.56-2.84-1.13-4.26-1.76,5.09-7.25,15.71-4.5,22.55-5,8.19-.55,10.36,2.44,16.47,7.2q0.15,0.28,0,0c-2-3-3.07-7.26-4.22-10.82,3.33,2.91,5.52,7.5,8.86,10.06-0.19-2.75.53-5.6,0.67-8.42,2.12,5.93,9.16,9.22,12.41,14.6-0.11-4.62,1.33-9.48,4.79-12.68-1,3.48,1,12.3,3.89,13.66,0.8-3.46,3.38-9.91,7.31-7.74-1.16,2.1-1.21,5.38-.84,7.71,2.22-.5,4.43-2,6.67-2.56-0.86,2.22-3.17,4.4-3.31,6.55,3.22-.61,7.05-2.29,10.28-1.75,5.65,1,2.26,1,1.52,5-1.08,6,4.39,5.28,4.36,11.15-0.18.11-.35,0.23-0.52,0.36-1.45-1.86-2.84-3.87-5.35-3.51,0.86,2.91,2.6,6.95.38,10.13-1.69-1.3-3.47-3.31-5.19-4.7-1.49,1.58-1.23,3.64-1.94,5.81-0.29-1.63-1.26-1.9-1.95-3-1.59,1.59-2.58,3.71-4,5.5a23.77,23.77,0,0,0-.63-3.21c-1.11,1.31-1.63,1.68-1.64.54-1.47,1.8-2.87,4.17-4.37,5.73a7.52,7.52,0,0,0,.66-4.59c-2.5,1-4.87,3.34-7.38,4.1,0.78-1,1.32-2.71,2.13-3.82-1.6-.81-3.38.6-4.87,2.13,0.71-1.06,1.34-2.54,2.06-3.7-2,1-3.56,3.43-4.29,5.76a7.08,7.08,0,0,0-.52-5.26c-0.9,2.52-.85,5.17-1.73,7.75-0.21-2.06-.36-6.75-2.42-7.58-2.22-.89-3.2.66-2.9,3.16-1.41-1.72-2.57-1.38-3.35.78-0.55-2.63-2.4-1.66-3.9-.53,0.13-1.7-.49-2.53-0.93-3.68-0.37,1.1-1.24,1.79-1.63,2.9-1.09-2.34-3.44-1.5-3.68,1-0.4-2-1-2.08-2.14-3.19,0.18,1.13,0,2.71.17,3.79-0.26-1.69-1.06-2.2-1.86-3.41-0.35,1.16-1.36,2-1.74,3-0.25-.8-1.23-2-1.49-2.84-0.21.68-.52,1.48-0.73,2.17-0.12-.6-0.45-1.32-0.58-1.75-1.1,4.84-2.65,2.09-5.3,1.65s-5.22.05-8,.13c-0.14.51,0.1,0.74,0,1.17-2.26-1.33-6.64.31-9.08,1.85-3.7,2.35-4,5.62-6,9.68-1.58,3.26-2.85,6.74-4.66,9.84s-3.77,4.15-6.53,6.44c1.42-2.52,2.6-5.32,4-8-3.66,6-11.42,4.57-12.37,12.41"/><path class="cls-21" d="M157.15,43.37c-2.95-3.53-12.66-3.57-16.86-2.74-5.79,1.15-11.93,5-17.31,7.7,2.86-5.35,10-9.05,15-11.56-2.61-.32-7.76,1.77-10.24-0.34C132,28.25,148.48,21.84,156.31,25c-3.51-.54-8.13-3.27-9.26-6.82a55.89,55.89,0,0,1,12.44.95c-1.51-2-3.18-4.48-3.59-7,3.6,0.83,6.24,4.19,9.82,4.7a15.35,15.35,0,0,1-1.29-9.51,51.79,51.79,0,0,1,5.73,6.76c-0.36-2.31-1-5.4.46-7.31,1.34,1.95,1.71,5.27,3.7,6.62,1-2,1-4.11,2.42-5.79,0.35,2.92.18,6.43,3.18,7.74,1.3-2.37,1.18-5.64,3.36-7a6.66,6.66,0,0,0,1.92,4.83c1.46-1.59,2.68-3.48,4.57-3.5-0.28.87-.34,1.95-0.63,2.82,5.21-3.23,4.12-3.79,5,2.2,0.63-.39,2.12-0.69,2.59-1a27.57,27.57,0,0,0-.78,3.14,24.11,24.11,0,0,1,7.76-5.27c0,0.52-.18,1-0.26,1.51a18.11,18.11,0,0,1,8.6-1c-1.47,1.33-3.27,2.45-4.59,3.92,1.87,0.08,3.86.27,5.81,0.37,0.08,0.19.17,0.38,0.26,0.56a10.3,10.3,0,0,1-.88,1.08c0.71,0.3,1.18,1.22,2.23,1.46a23.43,23.43,0,0,0-4,4.84c-1.32-.66-1.55-0.17-3.13.23,1.78,2.17,7.66,1.36,10.55,1.45a43,43,0,0,0-5.06,3.47,14.46,14.46,0,0,0,4.46.35,4.66,4.66,0,0,0-3.85,4.24c3.56-1,7.77-3.48,11-.48-3.1,2.57-8,2.35-10.16,6.79a6.72,6.72,0,0,0,5.59-1.84c-0.87,1-1.13,2.63-1.7,3.85,1.3,0,2.68.65,4,.67-2,2.22-1.85,5.67,1.46,5.36,1.51,2.11,5,4.08,7.43,5.35-6.16-3.35-14.22-.28-20.41-2.28-3.27-1.06-15.67,1.09-17.18-2.68l-0.73,2.84c0.59-2.21,1.23-4.45,1.71-6.66-1.9,1.19-3,4.28-4.71,5.85-0.27-1.91-.18-4.57-1.1-6.39-1.94,1.23-3.34,3.84-5.35,5-0.71-5.75-1.44-8.15-5.31-2.29,0.71-6.21-3.72-4.13-5.47-.57,0.16-.83,0-1.73.1-2.57-1.63,1-4.42,2.65-6.4,2.25s-4.88-2.36-1.4-3c-1,3.46-5.89,2.06-8.77,2.51-5.66.87-10.38,4.48-14.51,9.64,0.83-3.7,7.57-12.51,11.44-11.44,4.92-8.6,9.12-12.47,17-18.39"/><path class="cls-21" d="M210.68,18.8c2.62-3.58,3.4-10.65.17-13.7a97.94,97.94,0,0,1,5.33,9.39c0.17-2.17.76-4.46,2.74-5.48,1.14,2.27.55,5.09,0.67,7.63,1.59-2.39,2.57-6.38,4.9-7.79,0.24,3-3,14.06,2,10.3,2.48-1.88,3.95-13.72,9.19-9.93a15.71,15.71,0,0,0-5.5,11.68c2.15-2.37,4.32-8.16,8.11-7.93-1,1.42-5.49,6.25-3,7.56,1,0.5,6.38-3.76,7.69-4.12a13.64,13.64,0,0,0-2.71,4.5c2.65,0.15,4.81-2.61,7.53-3.18a17.48,17.48,0,0,0-.73,4.58c1.1-1.81,2-4.32,3.71-5.56a29.24,29.24,0,0,0-1.48,3.49c5.2-2.68,8.7-8.6,14.8-9.24-1.82,3-8.07,5.33-8.51,9.31-0.3,2.64,2.68-.3,3.12-0.88a7.91,7.91,0,0,0-2.65,3.95c1.58-.08,14.4-4.58,7.8,1.21,1.5-.86,3-2.41,4.45-3.48a14.65,14.65,0,0,0-3.3,3.32c2.61-.49,5.69-2.84,8.47-2a11.92,11.92,0,0,1-2.7,4.44c2.78,0.14,5.85-.73,8.66-1.12-1.53,3.45-5.51,3-8.1,5.27,3.6,0,10.18-.68,12.7,2,1.57-.1,1.73.38,2.83,1.25-3.18,2.26-10.18-1.17-11.86,3.85,4.37,1.57,14.34-1.13,16.74,2.77-2.5.54-5.82,1.27-8.43,2.06,4.92,1.58,15.77.24,17.36,6.85l-0.52.34a8.2,8.2,0,0,0-8.62-.12c2.57,1.85,6.74,4.14,7.93,7.34-2.28-1.87-5.88-4.09-8.72-3.15,1.38,1.19,4.68,6.45,1.93,8s-5.6-5.71-7.1-6.53c-0.48,2.73.17,5.51,0.09,8.28-2.36-1.34-3.8-4.53-6.14-6.39,0.55,1.95,1.55,3.63,2,5.64-1.48-2.71-3.25-5.85-6.34-6.33a11.59,11.59,0,0,0,2.28,5.77c-3.5-3.29-5.92-8-11.44-6,0.5,1,.71,2.49,1.71,3.39-2.21-2.51-3.91-5.55-7.15-6.73,1.42,2.77,3.07,6.07,2.59,9.41a25.73,25.73,0,0,0-3-6.78,29.82,29.82,0,0,1-2.09,4.21c-1.36-1.4-1.72-3.69-3-5.14a15,15,0,0,0-3.31,6.13c-0.09-1.9.2-4.76-.43-6.7-1.16,1.71-1.83,4-3,5.32a34.11,34.11,0,0,0-.42-6.23c-2.35.81-3.56,5.07-6,6.28a14,14,0,0,0,0-6.12c-2,.63-3.11,3-5.1,4.2,0.61-1.27,1.12-3,1.78-4.21-0.25.39-1.74,2.27-1.7,2.22,0.12-.54.23-1.16,0.38-1.67-3.37.31-8.43,1.47-11.61,0.29l1.64-.82c-3-1.16-6.1.3-9.16,0.72,3.18-1.83,6.93-2.79,9.42-5.78a4.28,4.28,0,0,1-4.44.37c0.25-.52.49-1,0.68-1.47-1.43.41-7.08,2.59-8.16,1.2-1.57-2,2.11-4.06,3.34-5.56-2.47.38-6.31,3.15-6.7-.46-0.25-2.38,2.48-3.54,3.13-5.79-2.82-.2-5.83-0.16-7.68-2.46a31.19,31.19,0,0,0,4,1.31c-5-4.68-12.09-6.15-18.91-5.58,2.95-.72,6-2.51,9-2.82-1.14-.49-2.07-1.39-3.38-1.73,1.7-1.91,4.41-2.84,6.79-3.44-1,0-1.91-.4-2.92-0.38a3,3,0,0,0-.48-1,26.41,26.41,0,0,1,6.63-1.68c-1.06-.36-1.57-1.43-2.23-1.9,2.25-2.35,3.31,0,5.14-.49,2-.6,3.07-2.08,5-3.63,4.9-4,10.81-6.05,16.66-7.3"/><path class="cls-21" d="M290.86,57.5c-0.41-.42-1.4.33-0.51-1,2.08,1.44,6.26,3.52,9.67,6.12s6,5.74,5,9.28c-3.82-.61-6.7-4.4-9.59-6.11,6.79,2.89,10.91,9.43,16,14.89a10.32,10.32,0,0,0-4.87-2.76c4.94,4.19,10.5,13.67,8.9,20.87a15.8,15.8,0,0,0-3.61-6.07c4.34,9.31,9.4,19.24,9.64,30.34-2.56-3.13-1.63-7.67-5.31-10.58-0.12,2.34,1,4.81.4,7.37-0.94-4.95-4.9-9.86-5.51-14.27a17.47,17.47,0,0,1,1.65,6.78c-3.48-3-4.34-11.57-8.47-13.22a70.15,70.15,0,0,1,1.8,19.23c-3.2-5.83-2.21-13.27-6.78-18.61,1.15,3.76,2.66,11.12-.46,14.36,1-3.67-3.28-11.9-6-13.43,0.14,5.17,3,16-2.55,19.1,0-4.74.58-11.06-2-15.14,0.72,5.09.15,11.41-.39,16.25-1.46-4.74-2.28-12.74-5.85-16.17,0.15,4.48-.5,9.44,0,13.81a54.34,54.34,0,0,1-2-8.54,40.05,40.05,0,0,0-2.38-8.66c0.76,4.41-1.74,8-2.87,12,1.3-2.79,1.05-9.54-1.1-12.13-0.3,4.24-.29,8.22-2,12.52-0.56-4.06-.57-8-2.88-11.78,0.64,3.5-.95,6.69-0.31,10.19-1.2-3.58-3-6.68-4.31-9.71,0.64,3.5,3.11,6.13.89,9.79-2.23-4.3-3.83-9.07-6.7-12.89,0.24,2.31.4,5.17,1.76,7.64-3.43-3.9-6.3-7.71-9.17-11.53a18.49,18.49,0,0,1,2.64,9.47c-3.66-2.22-5.5-5.33-7.89-8.51,0.8,2.39,3.35,4.45,2.32,7.72-1.76-3.66-4.15-6.84-4.08-11.38a20.19,20.19,0,0,0-3.1,5.82c0.47-3.34-.25-6.29-0.41-9.15-0.79,1.59-1.51,2.63-2.3,4.22-0.16-2.87,2.86-4.14,2.7-7-2.87.16-3.82,2.87-5.65,3.75-0.8-2.39,1.67-3.74,2.46-5.34-2.31.24-2.7,3-5,3.27,0.4-2.79,1.83-4.86,2.7-7-2.39.8-3.82,2.87-6.2,3.67a20,20,0,0,1,2.94-4.7,5.63,5.63,0,0,1-2.63,2.47,12.4,12.4,0,0,1,1.19-4.38c-1.75.32-3.58,1.2-5.17,0.41,0.71-1,1.35-1.51,1.51-2.63-1.35,1.51-2.15,3.11-4.38,2.79,0.72-1,1.35-1.51,1.51-2.63-3,1.28-5.49-1.35-6.37-3.18-0.08.56-.64,0.48-0.71,1,0.79-1.59-.08-3.42-0.41-5.17a9.57,9.57,0,0,1-1.11,3.82c-0.4-1.19-.16-2.87-0.56-4.06-0.48-.64-1.11-0.16-1.75.32-0.24-2.31-1-4.7-.65-7.48-0.64.48-2.54,1.91-2.47,1.36-3.91-8.51,8.1-17,16.14-17.61,0.32,1.75-1,3.26-1.82,4.86,1.83-.88,3.18-2.39,4.85-2.16,5.25-1,9.79-.89,14.56-2.49,0.32,1.75,2.15.87,3.11,2.15,1-2.71-.41-5.17-0.65-7.48,1.28,3,4.31,5.73,5.51,9.31,1.19-4.38.63-8.44-.49-12.58,4.07,3.42,7.41,7.87,7.74,13.6,1.43-2.07,0-4,.87-6.13,2,2,3.75,5.65,7.25,5,0.56,0.08,1.35-1.51,1.91-1.44,2.15,0.87,4.07,3.42,5.34,2.46,5.57-3.19,10.18-7.65,16.52-8a65.57,65.57,0,0,1,11.79-.69"/><path class="cls-37" d="M135,71.42a38.2,38.2,0,0,1-2.33,3.75c-0.7.92-1.61,1.8-3.3,3.68s-3.91,4.32-5.94,7A60,60,0,0,0,118.28,94,64.83,64.83,0,0,1,122,85.1a41,41,0,0,1,5.41-8,19,19,0,0,1,3.81-3.46C132.25,73,133.24,72.48,135,71.42Z"/><path class="cls-37" d="M133.08,63.67c-2,2.29-3,3.46-4.26,4.6s-2.67,2.25-5.37,4.68a50.5,50.5,0,0,0-8.12,9c-0.59.94-1.18,1.9-1.67,2.88-0.27.47-.49,1-0.72,1.53l-0.34.78-0.24.74A32.09,32.09,0,0,0,111.17,94v0a1.83,1.83,0,0,1-.06,1.7,1.77,1.77,0,0,0-.11-1.64h0v0a34.11,34.11,0,0,1,.43-6.19l0.15-.84c0.08-.36.16-0.56,0.25-0.86,0.18-.54.3-1.09,0.53-1.64s0.42-1.12.66-1.67l0.76-1.62A37.28,37.28,0,0,1,121.67,71a32.93,32.93,0,0,1,5.9-4.44C129.06,65.7,130.46,65.06,133.08,63.67Z"/><path class="cls-37" d="M142.21,48.08c-3.28,1.86-4.81,2.92-6.59,3.93s-3.82,2-7.6,4.39A62.17,62.17,0,0,0,115.46,66.8L114,68.53l-1.41,1.76c-0.94,1.18-1.84,2.36-2.64,3.57a18.17,18.17,0,0,0-3.13,7.4,18.67,18.67,0,0,1,2.34-7.55c0.68-1.3,1.46-2.6,2.29-3.89l1.26-1.93L114,66a49.08,49.08,0,0,1,12.54-11.81,35.37,35.37,0,0,1,8.19-4.11C136.79,49.38,138.64,48.9,142.21,48.08Z"/><path class="cls-37" d="M154.71,36c-3.1,2-3.11,1.93-7.19,2.85-2,.48-4.72,1-7.41,1.66a39.28,39.28,0,0,0-7.44,2.61,42.24,42.24,0,0,1,6.78-4.1,38.25,38.25,0,0,1,7.46-2.74C151.09,35.34,151.26,35.87,154.71,36Z"/><path class="cls-37" d="M165.9,56.69a44.74,44.74,0,0,1-4.68.61c-1.24.08-2.59-.07-5.28-0.08a41.56,41.56,0,0,0-9.67.9,23.61,23.61,0,0,0-2.55.76,11,11,0,0,0-1.25.49c-0.42.19-.84,0.35-1.17,0.54a5.43,5.43,0,0,0-1.79,1.62,2.37,2.37,0,0,0-.34,2.17,2.53,2.53,0,0,1,0-2.22,5.8,5.8,0,0,1,1.57-2.08,5.38,5.38,0,0,1,.57-0.43l0.56-.36a13.82,13.82,0,0,1,1.18-.72,24.67,24.67,0,0,1,2.59-1.26,28.13,28.13,0,0,1,10.3-2,19.91,19.91,0,0,1,5.52.61C162.69,55.55,163.78,56,165.9,56.69Z"/><path class="cls-37" d="M185.89,52.32c-2.08-1.82-3.15-2.62-4.22-3.59l-1.8-1.62A19,19,0,0,0,176.95,45c-0.32-.2-0.68-0.37-1-0.57s-0.68-.35-1.14-0.53l-0.66-.27-0.62-.23-1.37-.47A42.19,42.19,0,0,0,166,41.45c-1.06-.17-2.15-0.31-3.21-0.41s-2.18-.21-3.21-0.27a13.6,13.6,0,0,0-3,.11A4.49,4.49,0,0,0,154.14,42c1.07-1.35,3.2-1.82,5.27-2,1.06-.1,2.14-0.12,3.23-0.18s2.25-.07,3.38,0c4.55,0.16,9.1,1,12.27,2.88a15.65,15.65,0,0,1,3.3,2.56,13.17,13.17,0,0,1,1.69,2.1A48.92,48.92,0,0,1,185.89,52.32Z"/><path class="cls-37" d="M169.16,29.75c-1.87-.78-1.92-0.84-2.63-2.68s-0.67-5.11-.67-7.2c0.76,1.79,2.52,4.64,3.16,6.29S169.2,28,169.16,29.75Z"/><path class="cls-37" d="M175.79,29.86c-2-1.4-2.07-1.39-3-3.86a16.85,16.85,0,0,1-.88-4.54,15.19,15.19,0,0,1,.42-4.82v0h0a0.47,0.47,0,0,1,.22-0.07,0.11,0.11,0,0,1,.09.16c0-.16-0.14-0.12-0.24,0l0,0a14.45,14.45,0,0,0,1.12,4.4c0.59,1.5,1.31,2.92,1.72,4C176.16,27.44,175.73,27.66,175.79,29.86Z"/><path class="cls-37" d="M187.46,35.38c-2.51-2.39-2.54-2.36-4.11-6a34.29,34.29,0,0,1-2.13-7.83l0,0.05A25.16,25.16,0,0,1,180.7,18a10.4,10.4,0,0,1,0-1.7,2.28,2.28,0,0,1,.53-1.45,2,2,0,0,0-.22,1.39,8.92,8.92,0,0,0,.34,1.57,25.64,25.64,0,0,0,1.28,3.29v0c1,2.65,2.33,5.23,3.14,7.17C187.33,31.92,186.93,32.19,187.46,35.38Z"/><path class="cls-37" d="M198.88,52.5c-0.68-2.78-1.06-4.14-1.3-5.67s-0.32-3.21-.82-6.51a42.63,42.63,0,0,0-3.39-11.65l-2.63-6.25-0.31-.75-0.14-.35-0.18-.38c-0.22-.5-0.4-1-0.57-1.49a6.07,6.07,0,0,0-1.39-2.51,6.13,6.13,0,0,1,1.65,2.25c0.23,0.44.45,0.9,0.71,1.34s0.56,0.92.82,1.38l3.43,5.9a32.89,32.89,0,0,1,4.62,12.1,26.35,26.35,0,0,1,.33,6.87C199.54,48.36,199.26,49.77,198.88,52.5Z"/><path class="cls-37" d="M193,66.61c-0.42-2.83-.67-4.28-0.82-5.81a57.55,57.55,0,0,0-.68-6.13l0,0.12-0.23-.73c-1.07-3.27-2.72-7.59-5.72-11.06l0-.06c-2.78-3.77-6.63-7-9.38-9.72,2.86,2.34,7.14,4.94,10.66,8.67l0-.05a27.31,27.31,0,0,1,7.06,11.39L194.06,54l0,0.07v0.05a18.79,18.79,0,0,1,.16,6.74C194,62.48,193.59,63.93,193,66.61Z"/><path class="cls-37" d="M198.88,23.16a3.75,3.75,0,0,1-1.13-2.27,5.11,5.11,0,0,1,.8-2.71,9.17,9.17,0,0,1,5.11-4l0.08,0a11.33,11.33,0,0,1,1.76-.26,1.55,1.55,0,0,1,.9.21,0.76,0.76,0,0,1,.29.74,0.63,0.63,0,0,0-.37-0.52,1.1,1.1,0,0,0-.69.07,10.33,10.33,0,0,0-1.52.83l0.07,0a13.21,13.21,0,0,0-3.31,4.25,14,14,0,0,1-1,1.82A4.66,4.66,0,0,0,198.88,23.16Z"/><path class="cls-37" d="M202.69,29.51a5.51,5.51,0,0,1-1.21-2.6,6.62,6.62,0,0,1,.62-3.2,9.32,9.32,0,0,1,4-4.45,9.44,9.44,0,0,1,5.71-1.2,8.46,8.46,0,0,0-4.67,2.45,12.13,12.13,0,0,0-2.56,4.19c-0.46,1.21-.67,1.84-1,2.43A8.41,8.41,0,0,0,202.69,29.51Z"/><path class="cls-37" d="M209.24,32.1c1.58-2.86,1.67-2.79,4.4-5.05A23.8,23.8,0,0,0,218,22.59a7.81,7.81,0,0,0,.47-0.76l0.2-.35c0.06-.12.12-0.25,0.18-0.38a14.74,14.74,0,0,0,.58-1.64,9.72,9.72,0,0,0,.34-1.63,1.84,1.84,0,0,0-.28-1.45,2,2,0,0,1,.62,1.36,10.12,10.12,0,0,1,.08,1.72,15.24,15.24,0,0,1-.16,1.85,6.06,6.06,0,0,1-.22,1c-0.1.3-.16,0.58-0.29,0.9a15,15,0,0,1-4.15,5.85C212.44,31.48,212,31,209.24,32.1Z"/><path class="cls-37" d="M214.26,51.36a5.65,5.65,0,0,1-3.59-3.73c-0.4-1.46-.37-3.29.83-6.13a29.14,29.14,0,0,1,6.94-8.85l0,0c1.32-1.39,2.75-2.45,3.87-3.7a6.23,6.23,0,0,0,1.84-4.2,6.71,6.71,0,0,1-1.2,4.56c-0.95,1.5-2.28,2.88-3.29,4.33l0,0a42.17,42.17,0,0,0-5.65,8.85,12.57,12.57,0,0,0-1.16,4.72A5.32,5.32,0,0,0,214.26,51.36Z"/><path class="cls-37" d="M224.68,46.19A6.83,6.83,0,0,1,222,43.56a8.32,8.32,0,0,1-.69-4.36A15.94,15.94,0,0,1,224,31.84a14.26,14.26,0,0,1,2.65-3.26,4.8,4.8,0,0,1,3.47-1.28,4.13,4.13,0,0,0-1.54.52,5,5,0,0,0-1.31,1.2,13.05,13.05,0,0,0-1.77,3.46A22.44,22.44,0,0,0,224,39.35a32.48,32.48,0,0,0,.08,3.56A8.72,8.72,0,0,0,224.68,46.19Z"/><path class="cls-37" d="M230.44,32.89c-0.86-2.16-.87-2.23-0.11-4.53a15,15,0,0,1,2.19-3.89,18.77,18.77,0,0,1,3.18-3.29,16.63,16.63,0,0,0-1.71,4c-0.46,1.5-.78,3-1.16,4.06C232.13,31.37,231.65,31.25,230.44,32.89Z"/><path class="cls-37" d="M203.62,65.9a35.7,35.7,0,0,1-.56-4.61c0-1.22.14-2.54,0.22-5.17a39.16,39.16,0,0,0-.65-9.27c-0.66-3.42-1.56-7-1.87-9.85l0.06,0L201,37.31l-0.25-.3,0,0c0.68,2.64,2.15,5.9,3.39,9.3a26.55,26.55,0,0,1,1.73,9.9,19.29,19.29,0,0,1-.76,5.38C204.8,62.79,204.32,63.83,203.62,65.9Z"/><path class="cls-37" d="M215.4,66.74c-1.08-3.34-1.11-3.29-1-7.3a53,53,0,0,1,.86-7.61v0.12a21.91,21.91,0,0,1,.44-3.91,6.1,6.1,0,0,1,.67-1.77A1.78,1.78,0,0,1,217,45.6a1.38,1.38,0,0,1,.42-0.14c0.13,0,.27,0,0.4,0a1.12,1.12,0,0,0-1.13.85,5.07,5.07,0,0,0-.26,1.7,22.07,22.07,0,0,0,.4,3.81V52c0.07,2.75.27,5.5,0.21,7.56C216.95,63.54,216.44,63.62,215.4,66.74Z"/><path class="cls-37" d="M224,66.57c-0.12-3.21,0-3.21,1.21-6.5,0.39-1.07.9-2.34,1.35-3.74l0,0.08a23.73,23.73,0,0,0,.59-3.86,5,5,0,0,0-.73-3.49l0.25-.1a2,2,0,0,0,.23,1.14,2.08,2.08,0,0,1-.5-1.18l0-.2,0.19,0.13c1.06,0.71,1.51,2.18,1.79,3.56a19.27,19.27,0,0,1,.32,4.31V56.8a19.65,19.65,0,0,1-1,4.17C226.39,64.43,225.83,64.23,224,66.57Z"/><path class="cls-37" d="M173.19,63.81c-2.75,1.81-2.76,1.78-6.38,2.46-1.8.35-4.17,0.67-6.57,1.15-1.2.22-2.36,0.56-3.56,0.83a12.5,12.5,0,0,0-3.1,1.09,14.43,14.43,0,0,1,2.73-1.76c0.55-.27,1-0.53,1.61-0.84s1.15-.57,1.73-0.84a32.22,32.22,0,0,1,6.64-2.23C170,63,170.15,63.51,173.19,63.81Z"/><path class="cls-37" d="M173.26,55.52c-2.87,1-4.25,1.55-5.83,2s-3.34.77-6.79,1.73a79.69,79.69,0,0,0-10.21,3.55c-0.91.38-1.79,0.83-2.78,1.28A24.25,24.25,0,0,0,145,65.4a32.64,32.64,0,0,0-4.68,3.33h0a5.94,5.94,0,0,0-1.93,2.63v0a0.51,0.51,0,0,0,.23.25,0.84,0.84,0,0,0,.28-0.14,0.88,0.88,0,0,1-.27.18,0.46,0.46,0,0,1-.3-0.24h0A6.06,6.06,0,0,1,140,68.42h0a33.54,33.54,0,0,1,4.26-3.92,24.62,24.62,0,0,1,2.6-1.74c0.84-.49,1.72-1.09,2.64-1.59a47.68,47.68,0,0,1,10.42-4.45,30.15,30.15,0,0,1,7.18-1.28C168.81,55.35,170.34,55.43,173.26,55.52Z"/><path class="cls-37" d="M185.55,60.58c-0.88,2.16-.94,2.13-2.74,3.45a19.58,19.58,0,0,0-3.17,2.67l0-.1c-0.78,1.28-1.69,2.47-1.6,3.73-0.49-1.09-.15-2.81.16-4.31l0-.09a9.31,9.31,0,0,1,2.91-4C183.22,60.44,183.55,60.94,185.55,60.58Z"/><path class="cls-37" d="M202.41,60.75c-0.71,2.23-.7,2.19-2.42,3.72-0.83.78-2,1.68-3.06,2.73a4.78,4.78,0,0,0-1.15,1.72,1.7,1.7,0,0,0,.53,1.76A2.19,2.19,0,0,1,195,69a5.2,5.2,0,0,1,.51-2.59,12.19,12.19,0,0,1,2.66-3.84C200,60.88,200.42,61.27,202.41,60.75Z"/><path class="cls-37" d="M210.79,62.21c-0.29,1.86-.3,1.83-1.54,2.8-0.61.49-1.52,1-2.38,1.54a6.42,6.42,0,0,0-1.17.91,1,1,0,0,0-.25,1.18,1.1,1.1,0,0,1-.43-0.57,1.79,1.79,0,0,1,0-.86,6,6,0,0,1,.64-1.72,8.64,8.64,0,0,1,2-2.56C208.93,61.9,209.27,62.32,210.79,62.21Z"/><path class="cls-37" d="M235.24,63.46c-1.56,2.25-1.59,2.19-4,3.61-1.58,1-3.89,2.18-5.35,4.12l-0.08.12a2.2,2.2,0,0,0-.67,1.38,0.54,0.54,0,0,0,.24.58,1.28,1.28,0,0,0,.78,0,1.53,1.53,0,0,1-.8.26,0.85,0.85,0,0,1-.7-0.71,2.79,2.79,0,0,1,0-1.06,2.62,2.62,0,0,1,.4-1.14l-0.07.1A11.12,11.12,0,0,1,227,67.15a12.94,12.94,0,0,1,2.77-2.34C232.48,63.26,232.79,63.77,235.24,63.46Z"/><path class="cls-37" d="M237.85,68.53a10.66,10.66,0,0,1-1.31,2,14.08,14.08,0,0,1-1.91,1.38,21.3,21.3,0,0,0-3.33,2.64,10.85,10.85,0,0,0-1.53,1.84,2.07,2.07,0,0,0-.24,2,2.51,2.51,0,0,1-.5-2.2,10,10,0,0,1,.89-2.53,10.18,10.18,0,0,1,3.19-3.94,5.35,5.35,0,0,1,2.41-1.08C236.15,68.59,236.76,68.63,237.85,68.53Z"/><path class="cls-37" d="M242.12,75.5c-0.9,2.14-.85,2.11-2.68,3.51-0.88.72-2.15,1.53-3.28,2.49a5.11,5.11,0,0,0-1.34,1.58,1.3,1.3,0,0,0-.1.89,1.82,1.82,0,0,0,.55.79,2.19,2.19,0,0,1-.82-0.58,1.82,1.82,0,0,1-.39-1.16,5.54,5.54,0,0,1,.79-2.5A12.91,12.91,0,0,1,237.78,77C239.73,75.45,240.09,75.83,242.12,75.5Z"/><path class="cls-37" d="M247.08,79.53c-1.26,2.1-1.33,2-3.35,3.23a15.27,15.27,0,0,0-3.33,2.55l-0.08.11a6.73,6.73,0,0,0-1.47,1.7,2.14,2.14,0,0,0-.32,2,2.58,2.58,0,0,1-.41-2.21,7.36,7.36,0,0,1,1-2.57l-0.08.1a9,9,0,0,1,3.27-3.91C244.65,79.14,244.93,79.69,247.08,79.53Z"/><path class="cls-37" d="M251.71,86a9.27,9.27,0,0,1-1,1.82A9,9,0,0,1,249.14,89a26.54,26.54,0,0,0-3.39,2.58l-0.06.07c-0.82.59-1.65,1.51-1.23,2.47a1.82,1.82,0,0,1-.44-1.52,4.71,4.71,0,0,1,.67-1.84l0,0.06a9.57,9.57,0,0,1,3-4C249.51,85.55,249.84,86,251.71,86Z"/><path class="cls-37" d="M251.38,70.73c-2.39,1-2.42.89-5,.55-1-.12-2.29-0.35-3.6-0.41a6.12,6.12,0,0,0-3.72.81l0,0a3.61,3.61,0,0,0-.62.7c-0.15.21,0.14,0.42,0.43,0.5a1.24,1.24,0,0,1-.44-0.08,0.43,0.43,0,0,1-.26-0.46,3.28,3.28,0,0,1,.4-1l0,0a6.86,6.86,0,0,1,3.92-2.33,12.14,12.14,0,0,1,4.13-.28C249.48,69,249.38,69.6,251.38,70.73Z"/><path class="cls-37" d="M248.85,63.17c-3.17.23-3.12,0.23-6.5-.79-1.68-.49-3.88-1.25-6.13-2s-4.53-1.65-6.45-1.3a7.83,7.83,0,0,1,3.09-.49c0.58,0,1.18,0,1.77.06,0.32,0,.55,0,0.92,0l0.91,0.07a37.06,37.06,0,0,1,6.62,1.07C246.56,60.88,246.47,61.43,248.85,63.17Z"/><path class="cls-37" d="M244.76,51c-2.79-.2-2.77-0.25-5.33-1.72a43.51,43.51,0,0,0-5.94-3.09l-0.11,0a4,4,0,0,0-1.89-.57,1.05,1.05,0,0,0-.79.3,1.39,1.39,0,0,0-.28.86,1.66,1.66,0,0,1,0-1,1.42,1.42,0,0,1,.88-0.74,4.67,4.67,0,0,1,2.51,0l-0.1,0a17.67,17.67,0,0,1,7,2C243.43,48.49,243.16,49,244.76,51Z"/><path class="cls-37" d="M237.34,36.91c-1.1-1.73-1.12-1.71-.83-3.66a11.46,11.46,0,0,1,1.25-3.47,10.11,10.11,0,0,1,2.39-3,8.75,8.75,0,0,0-.82,3.42c-0.1,1.26-.06,2.52-0.21,3.45C238.85,35.52,238.35,35.51,237.34,36.91Z"/><path class="cls-37" d="M241.41,33.61a7,7,0,0,1-.39-2.47,7.56,7.56,0,0,1,.93-2.52,13.21,13.21,0,0,1,3.2-3.88A21.05,21.05,0,0,1,249.41,22a19,19,0,0,0-3,3.75c-0.92,1.45-1.55,3-2.11,4.06C243.26,32,242.82,31.89,241.41,33.61Z"/><path class="cls-37" d="M247.57,33.1c-0.84-1.42-.82-1.47-0.27-2.59s2.25-2.45,3.32-3.34c-0.33,1.21-.45,3.51-1,4.53S248.69,32.52,247.57,33.1Z"/><path class="cls-37" d="M250.72,42.12a14.91,14.91,0,0,1,.59-3.83,16.9,16.9,0,0,1,2.15-3.86,21.54,21.54,0,0,1,2.49-3,21.84,21.84,0,0,1,3.43-2.82,48,48,0,0,1,7.37-3.91,44.63,44.63,0,0,0-6.25,5.11,37.81,37.81,0,0,0-4.85,6.09,32,32,0,0,1-2.47,3.38C252.51,40.08,251.81,40.71,250.72,42.12Z"/><path class="cls-37" d="M254.37,45.69a9.09,9.09,0,0,1,.06-3.83,6.73,6.73,0,0,1,.68-1.63,14.87,14.87,0,0,1,1.5-2.23,20.17,20.17,0,0,1,6.32-5,44,44,0,0,1,7.49-3,41.26,41.26,0,0,0-6.51,4.33,33.17,33.17,0,0,0-5.24,5.34l-2.34,3.12A14.19,14.19,0,0,0,254.37,45.69Z"/><path class="cls-37" d="M257.66,47.81a14,14,0,0,1,.64-2.34,6.69,6.69,0,0,1,.78-1.57,14,14,0,0,1,3.43-3.36,18.78,18.78,0,0,1,8.19-3.48,13.22,13.22,0,0,1,4.82.05c0.38,0.09.75,0.16,1.11,0.26l1,0.4a13.37,13.37,0,0,1,1.77,1,11,11,0,0,0-8.24-.11,25.49,25.49,0,0,0-7.09,4c-1.74,1.35-2.61,2.07-3.45,2.68-0.43.3-.85,0.58-1.32,1A12.28,12.28,0,0,0,257.66,47.81Z"/><path class="cls-37" d="M266.19,50.13a11.24,11.24,0,0,1,2.22-3.29,14,14,0,0,1,3.87-2.41,20.93,20.93,0,0,1,8.24-1.83,19.81,19.81,0,0,1,8.36,1.61,18.53,18.53,0,0,0-8.08,0,32.85,32.85,0,0,0-7.42,2.63c-1.9.92-2.87,1.39-3.8,1.77A20.15,20.15,0,0,0,266.19,50.13Z"/><path class="cls-37" d="M269.85,59.5a23.48,23.48,0,0,1,3-4,29,29,0,0,1,4.57-3.45A46,46,0,0,1,287,47.45a54.71,54.71,0,0,1,10.61-2.56,52,52,0,0,0-9.83,4,102.56,102.56,0,0,0-9,5.43,54.62,54.62,0,0,1-4.75,2.93C273,57.86,271.85,58.32,269.85,59.5Z"/><path class="cls-37" d="M270,72.25a13.83,13.83,0,0,1,.65-4.89,16,16,0,0,1,3.09-4.87,27,27,0,0,1,8.5-6.27,21.47,21.47,0,0,1,5.4-1.83,12.78,12.78,0,0,1,5.07,0,11.71,11.71,0,0,0-4.72.64,20.8,20.8,0,0,0-4.83,2.48,38.13,38.13,0,0,0-7.43,6.66c-1.71,2-2.45,3.15-3.22,4.13A21.2,21.2,0,0,0,270,72.25Z"/><path class="cls-37" d="M274.41,78.14a15.67,15.67,0,0,1,1.48-4,17.7,17.7,0,0,1,3.22-3.73,24.74,24.74,0,0,1,7.79-4.85,26.21,26.21,0,0,1,4.72-1.39,9.2,9.2,0,0,1,4.4.16,8.24,8.24,0,0,0-4.06.54A25.5,25.5,0,0,0,287.71,67a39,39,0,0,0-6.79,5.36c-1.69,1.6-2.52,2.46-3.39,3.15A35.2,35.2,0,0,0,274.41,78.14Z"/><path class="cls-37" d="M263.27,68.81c-0.92-2.11-1.53-3-2-4.12s-0.9-2.31-2-4.68-2.94-5.6-4.86-8.77l0-.07a28.36,28.36,0,0,0-5-7.25l0.12-.11c0.19,0.3.53,0.44,0.67,0.71-0.18-.24-0.5-0.3-0.78-0.63l0.08-.07a29.28,29.28,0,0,1,6.29,6.55l0-.06a45.47,45.47,0,0,1,5.94,8.52,15.61,15.61,0,0,1,1.71,5.28A25.87,25.87,0,0,1,263.27,68.81Z"/><path class="cls-37" d="M255.77,82.7c-0.59-1.95-1-2.85-1.2-3.89s-0.33-2.17-.73-4.44c-0.37-2-.87-4.66-1.48-7.4s-1.41-5.49-2-7.93l0,0c-0.35-.62-0.49-1.14-0.76-1.61,0.32,0.4.58,0.91,1,1.44h0v0c0.92,2.16,2.37,4.72,3.39,7.42a39.82,39.82,0,0,1,2.39,7.52,14.6,14.6,0,0,1,.25,4.81A39.59,39.59,0,0,1,255.77,82.7Z"/><path class="cls-37" d="M263.35,99.54c-1.13-1.83-1.78-2.62-2.34-3.58s-1-2.06-2.27-4.14a49,49,0,0,0-5.23-7.13c-1.24-1.22-2.31-2.54-3.4-3.7a20.69,20.69,0,0,0-1.67-1.61l-1.72-1.29L248.57,79a21.3,21.3,0,0,1,1.94,1.29c1.3,1,2.61,2.07,4,3A28.18,28.18,0,0,1,261,90.45a14.06,14.06,0,0,1,2,4.76A28.72,28.72,0,0,1,263.35,99.54Z"/><path class="cls-37" d="M256.45,124.86a43.74,43.74,0,0,1,.12-4.46c0.11-1.16.45-2.38,0.81-4.86a31.12,31.12,0,0,0,.06-9l-0.22-1.23-0.3-1.27c-0.19-.75-0.5-1.59-0.77-2.35s-0.58-1.52-.92-2.22a7.81,7.81,0,0,0-.55-1,2.2,2.2,0,0,0-.34-0.41,0.39,0.39,0,0,0-.46-0.12,0.41,0.41,0,0,1,.48,0,2,2,0,0,1,.41.34,8,8,0,0,1,.7.86c0.44,0.62.87,1.3,1.29,2s0.83,1.45,1.23,2.28,0.68,1.61,1,2.51a22.65,22.65,0,0,1,1,9.91,16.63,16.63,0,0,1-1.39,5.09C258.07,122.08,257.47,123,256.45,124.86Z"/><path class="cls-37" d="M268.62,95.59c-1.23-2.91-1.18-2.88-1.32-6.33-0.11-1.71-.12-4-0.46-6.23a18.07,18.07,0,0,0-1.92-6.23,19.47,19.47,0,0,1,3.47,5.72,22.09,22.09,0,0,1,1.56,6.58C270.09,92.73,269.51,92.81,268.62,95.59Z"/><path class="cls-37" d="M280.28,93.36c-0.8-2.77-.8-2.77-0.19-5.88a73.08,73.08,0,0,1,2.77-9l0-.12h0a3.3,3.3,0,0,0,.59-1,1,1,0,0,0,0-1,1.1,1.1,0,0,1,.28,1.05,3.83,3.83,0,0,1-.36,1.27l0-.1a84.67,84.67,0,0,1-.78,9.39C282.07,91.1,281.56,91.05,280.28,93.36Z"/><path class="cls-37" d="M288.22,93.93a12.87,12.87,0,0,1-1.63-4.43,10.54,10.54,0,0,1-.06-2.19,18.66,18.66,0,0,1,.55-3.33,16.29,16.29,0,0,1,5.58-8.64,13.58,13.58,0,0,1,1.1-.81l0.28-.19,0.35-.21c0.21-.11.42-0.23,0.63-0.33a15.53,15.53,0,0,1,2.54-1,7,7,0,0,1,2.58-.3,2.13,2.13,0,0,1,1.16.46,1.53,1.53,0,0,1,.37.47,5.17,5.17,0,0,1,.17.53,1.52,1.52,0,0,0-1.61-1.09,5.9,5.9,0,0,0-2.27.6,14.31,14.31,0,0,0-2.21,1.25,7,7,0,0,0-1,.77c-0.32.32-.67,0.63-1,0.95a18.3,18.3,0,0,0-4.18,8.16c-0.31,1.21-.46,2.14-0.59,2.91s-0.24,1.38-.34,2A19.88,19.88,0,0,0,288.22,93.93Z"/><path class="cls-37" d="M292.41,95.63a10.88,10.88,0,0,1,0-3.24A11.31,11.31,0,0,1,293.84,89a13.92,13.92,0,0,1,5-4.83,10.19,10.19,0,0,1,3.5-1.38,3.74,3.74,0,0,1,3.17.83,3.22,3.22,0,0,0-2.87-.13,9.15,9.15,0,0,0-2.75,1.93,20.7,20.7,0,0,0-3.72,4.93,21.86,21.86,0,0,1-1.79,2.85C293.82,93.87,293.25,94.42,292.41,95.63Z"/><path class="cls-37" d="M300.89,92.41a7.17,7.17,0,0,1,3.31.3,8.22,8.22,0,0,1,3,2.39A13.08,13.08,0,0,1,309,97.83c0.26,0.51.52,1.1,0.73,1.63l0.67,1.62c0.92,2.22,1.79,4.49,2.49,6.31-1-1.51-2.45-3.46-3.87-5.44-0.36-.5-0.7-1-1.06-1.5s-0.64-1-1-1.39c-0.63-.87-1.25-1.62-1.78-2.23-1.07-1.2-1.66-1.74-2.17-2.34A11.21,11.21,0,0,0,300.89,92.41Z"/><path class="cls-37" d="M289.63,105.48a5.6,5.6,0,0,1,2.74-2.48,7.64,7.64,0,0,1,4.34-.1,14.59,14.59,0,0,1,7.89,5.28l0.05,0.06c0.52,0.9,1,1.75,1.51,2.53a9.24,9.24,0,0,0,.82,1.07,1.77,1.77,0,0,0,1,.66,1.88,1.88,0,0,1-1.16-.44,9.44,9.44,0,0,1-1.07-.89c-0.7-.66-1.41-1.44-2.11-2.2l0,0.05a18.27,18.27,0,0,0-7.56-3.55,26.46,26.46,0,0,0-3.37-.4A6.46,6.46,0,0,0,289.63,105.48Z"/><path class="cls-37" d="M296.09,122.45a5.33,5.33,0,0,1,.3-3.57,3.15,3.15,0,0,1,.42-0.68,4.14,4.14,0,0,1,.63-0.7,7.11,7.11,0,0,1,2.25-1.44,7,7,0,0,1,3.77-.43,7.44,7.44,0,0,1,2,.62,10,10,0,0,1,1.76,1.06,10.9,10.9,0,0,1,2.64,3,4.1,4.1,0,0,1,.69,3.37,3.56,3.56,0,0,0-1.22-2.83,10.42,10.42,0,0,0-2.88-2.1,4,4,0,0,0-.38-0.16l-0.45-.17-0.45-.17-0.39-.09a6.89,6.89,0,0,0-1.54-.18,6.62,6.62,0,0,0-2.57.53,12.36,12.36,0,0,0-2.6,1.63A6.06,6.06,0,0,0,296.09,122.45Z"/><path class="cls-37" d="M297.41,126.79a5.89,5.89,0,0,1,3.17-2,7.31,7.31,0,0,1,4.44.7,11.61,11.61,0,0,1,4.62,4l-0.08-.09a15.11,15.11,0,0,1,2.43,3.86,9.68,9.68,0,0,1,.94,4.08v0.4l-0.19-.32a1.49,1.49,0,0,1-.34-1,1.44,1.44,0,0,0,.49.85l-0.13.05c-0.43-2.32-2.47-4.85-4.56-6.51l-0.08-.09a14.13,14.13,0,0,0-4.16-2.82,18.05,18.05,0,0,0-3.28-1A6.84,6.84,0,0,0,297.41,126.79Z"/><path class="cls-37" d="M299,132.83a4.74,4.74,0,0,1,2.42-1.53,3.7,3.7,0,0,1,1.39,0,5.68,5.68,0,0,1,2,.84,7.54,7.54,0,0,1,2,2,19,19,0,0,1,1.44,2.6,31.24,31.24,0,0,0,2.52,4.87c-2.33-1.77-5.46-6.26-7.4-7.28a17.21,17.21,0,0,0-2-1A6.28,6.28,0,0,0,299,132.83Z"/><path class="cls-37" d="M287.91,152.84a7.76,7.76,0,0,1-1.91-2.53,8.92,8.92,0,0,1-.47-3.59,10.07,10.07,0,0,1,.72-3.4,9.21,9.21,0,0,1,2.24-3.28l-0.05.07a8,8,0,0,1,2.83-1.91,4.78,4.78,0,0,1,1.52-.37,1.81,1.81,0,0,1,1.34.41,2.38,2.38,0,0,0-2.47.55,7.31,7.31,0,0,0-2,2.19l0,0.06a10.93,10.93,0,0,0-1.46,5.78c0,1.54,0,2.36-.09,3.12A14.22,14.22,0,0,0,287.91,152.84Z"/><path class="cls-37" d="M283.36,136.14c-0.45,1.78-.58,2.64-0.87,3.52s-0.77,1.74-1.33,3.61a21.27,21.27,0,0,0-.9,7.14,27,27,0,0,0,.33,4.07c0.25,1.26.64,2.53,1.68,3.11a4.6,4.6,0,0,1-2.36-2.76,24.05,24.05,0,0,1-1.25-4.1,17.28,17.28,0,0,1-.56-4.34,13.85,13.85,0,0,1,.52-3.85,9.7,9.7,0,0,1,2-3.91A29.94,29.94,0,0,1,283.36,136.14Z"/><path class="cls-37" d="M274.71,136.58c-0.56,2.35-.65,3.51-0.94,4.73s-0.75,2.51-1.2,5.21a31.1,31.1,0,0,0-.07,10,24.92,24.92,0,0,0,1.44,5.32,7.81,7.81,0,0,0,1.31,2.2,2.39,2.39,0,0,0,2.09.91,2.55,2.55,0,0,1-2.24-.57,7.8,7.8,0,0,1-1.75-2A24.41,24.41,0,0,1,271,157a24.07,24.07,0,0,1-1-10.9,15.3,15.3,0,0,1,1.84-5.57A30.28,30.28,0,0,1,274.71,136.58Z"/><path class="cls-37" d="M267.1,151.28a34.2,34.2,0,0,1,.4,3.65c0,0.94-.16,2-0.29,4a64.34,64.34,0,0,0-.12,7.49c0.13,2.76.54,5.65,0.61,7.94-0.44-2.09-1.48-4.75-2.21-7.59a27,27,0,0,1-.93-8,12.27,12.27,0,0,1,.85-4.21C265.81,153.61,266.3,152.81,267.1,151.28Z"/><path class="cls-37" d="M260.9,154a36.9,36.9,0,0,1,.17,4c-0.05,1-.3,2.13-0.63,4.36s-0.78,5.15-1,8.18c-0.18,1.59-.4,3.06-0.45,4.52a8.5,8.5,0,0,0,.61,4c-1.39-1.94-1.62-5.31-1.79-8.38a37.42,37.42,0,0,1,0-8.66,15.46,15.46,0,0,1,1.19-4.48C259.46,156.49,260,155.65,260.9,154Z"/><path class="cls-37" d="M261.5,141.91c-0.68,3.08-.74,3-2.66,5.88a53.36,53.36,0,0,0-3,5c-1,1.82-1.5,4.3-2.93,5.69l-0.21.2,0.06-.27a0.55,0.55,0,0,1,.17-0.33,2.33,2.33,0,0,1,.26-0.16,0.58,0.58,0,0,0-.3.51l-0.09,0c1-1.51.81-3.82,1.39-6.11a19.67,19.67,0,0,1,2.47-5.9C258.66,143.33,259.17,143.65,261.5,141.91Z"/><path class="cls-37" d="M253.4,140.49c-2.36-1.18-2.41-1.18-3.84-3.69a18.6,18.6,0,0,1-1.75-4.86c-0.18-.91-0.36-1.81-0.48-2.73a4.48,4.48,0,0,1,.23-2.56l0,0h0l0.26,0.08h-0.27l0,0a3.76,3.76,0,0,0,.48,2.24c0.36,0.77.82,1.58,1.26,2.41,0.87,1.57,1.87,3,2.51,4.2C253.23,137.88,252.85,138.17,253.4,140.49Z"/><path class="cls-37" d="M259.68,141.1a9,9,0,0,1-3.07-1.1,10.59,10.59,0,0,1-2.55-2.67,16.09,16.09,0,0,1-2.67-6.31,19.92,19.92,0,0,1-.1-6.87,18.53,18.53,0,0,0,1.62,6.3,28.25,28.25,0,0,0,3.28,5.32,25.19,25.19,0,0,1,1.91,2.73A18.78,18.78,0,0,0,259.68,141.1Z"/><path class="cls-37" d="M272,114.34a11.57,11.57,0,0,1,.7,4,11.75,11.75,0,0,1-1.27,4.54,11.59,11.59,0,0,1-2.44,3.43,10.72,10.72,0,0,1-4.18,2.47l-1.1.28a5.27,5.27,0,0,1-1.31.13,7.29,7.29,0,0,1-2.35-.41,4.19,4.19,0,0,1-1.87-1.25,2.4,2.4,0,0,1-.5-1.9,2.23,2.23,0,0,0,.69,1.6,3.45,3.45,0,0,0,1.75.78,6.14,6.14,0,0,0,2.06,0,5.23,5.23,0,0,0,1-.26l1-.46a10,10,0,0,0,3.09-2.56,14.4,14.4,0,0,0,1.79-3c0.86-1.87,1.16-2.93,1.59-3.84A20.9,20.9,0,0,0,272,114.34Z"/><path class="cls-37" d="M263.73,96.83a3.77,3.77,0,0,1,4.25.55c0.93,0.89,1.62,2.21,2,4.63a15.59,15.59,0,0,1,.1,3c0,0.58-.09,1-0.15,1.6s-0.16,1.12-.29,1.69a17.21,17.21,0,0,1-2.75,6.31l0-.05a6.59,6.59,0,0,1-1.1,1.57,2.29,2.29,0,0,1-1.57.77h0v0a0.88,0.88,0,0,1-.14-0.62,0.87,0.87,0,0,0,.22.56l0,0c1-.21,1.62-1.38,2-2.54l0,0a17.47,17.47,0,0,0,1.41-6.2c0-.52,0-1,0-1.55s0-1.08,0-1.51c0-.94-0.15-1.82-0.25-2.57a13.7,13.7,0,0,0-1-3.65l-0.3-.55a3.76,3.76,0,0,0-.45-0.53A3.44,3.44,0,0,0,263.73,96.83Z"/><path class="cls-37" d="M274.74,97.28c2.2,2.52,2.24,2.54,3.24,6.25a37.32,37.32,0,0,1,.94,5.94v0.1c0,1.35,0,2.83,0,4.26a12.34,12.34,0,0,1-.7,3.88A10.71,10.71,0,0,0,278,114c-0.26-1.36-.69-2.76-1-4.25v0.09c-0.63-2.09-1.28-4.07-1.68-5.61C274.44,100.58,274.9,100.4,274.74,97.28Z"/><path class="cls-37" d="M282.81,104.79a2.1,2.1,0,0,1,1.67.15,3.44,3.44,0,0,1,1.1,1,5.92,5.92,0,0,1,1,2,16,16,0,0,1,.27,5.72,34.68,34.68,0,0,1-1.71,8.13,41.39,41.39,0,0,1-3.93,8.1l0,0.06h0c-0.44.43-.81,1-1.24,1.44a1.8,1.8,0,0,1-1.54.76,1.64,1.64,0,0,0,1.33-.9c0.35-.49.61-1.06,1.05-1.67l0,0.05a45.23,45.23,0,0,0,2.54-8.32,71.31,71.31,0,0,0,.95-7.88c0.2-2.69.23-4,.27-5.19a8,8,0,0,0-.1-1.78,2.39,2.39,0,0,0-.4-1A1.71,1.71,0,0,0,282.81,104.79Z"/><path class="cls-37" d="M291.53,107.69a12,12,0,0,1,1.74,4.19,19.82,19.82,0,0,1,0,5.17c-0.12,1.3-.34,2.78-0.58,4.32l-0.16,1.11-0.08,1.21-0.12,2.53c-0.13,3.42-.54,7-1.72,9.57a16,16,0,0,0,.49-4.36,49,49,0,0,0-.4-5l-0.28-2.59q-0.06-.65-0.1-1.29v-0.7l0-.62c0.06-1.65.17-3.14,0.28-4.4,0.22-2.51.34-3.74,0.53-4.88A18.41,18.41,0,0,0,291.53,107.69Z"/><path class="cls-37" d="M277.9,82.78a14.89,14.89,0,0,1-.24,2.64,17.83,17.83,0,0,1-1.08,2.52c-0.53,1.18-1.29,2.66-1.95,4.26A21.12,21.12,0,0,0,273.23,97L273,97l0.69-.37-0.57.53-0.1.1,0-.16a20.8,20.8,0,0,1-.11-5.23,16.94,16.94,0,0,1,1.24-5,7,7,0,0,1,1.65-2.48C276.35,83.9,276.94,83.54,277.9,82.78Z"/><path class="cls-37" d="M267.84,63.92a32.9,32.9,0,0,1-1,3.58c-0.35.89-.9,1.77-1.8,3.63a59.58,59.58,0,0,0-2.8,6.51c-0.21.58-.43,1.29-0.6,1.86s-0.36,1.31-.54,1.94a10.83,10.83,0,0,0-.59,3.55l-0.07-.07a0.55,0.55,0,0,0,.61-0.38,0.61,0.61,0,0,1-.63.52h0v0a11.34,11.34,0,0,1-.17-3.64l0.13-2c0.05-.74.12-1.36,0.22-2.08A25.73,25.73,0,0,1,262.65,70,12.62,12.62,0,0,1,265,66.37C265.77,65.64,266.52,65.07,267.84,63.92Z"/><circle class="cls-29" cx="297.17" cy="201.77" r="4.09" transform="translate(55.75 467.74) rotate(-81.94)"/><path class="cls-31" d="M301.23,202.35l0-.26a3.73,3.73,0,0,0-.13-0.73,3.93,3.93,0,0,0-1.37-2.08,3.54,3.54,0,0,0-3.18-.62,3.28,3.28,0,0,0-.84,5.93,3.67,3.67,0,0,0,.39.22,2.74,2.74,0,0,0,.39.16l0.26,0.07,0.18,0a3.22,3.22,0,0,0,.42.06,3.6,3.6,0,0,0,1.58-.25,3.93,3.93,0,0,0,1.9-1.62,3.64,3.64,0,0,0,.33-0.66l0.09-.25v0.27a3.35,3.35,0,0,1-.11.77,4.18,4.18,0,0,1-1.68,2.43,4.61,4.61,0,0,1-4.6.37,4.91,4.91,0,0,1-2.76-5.18,5.32,5.32,0,0,1,.49-1.52,4.9,4.9,0,0,1,3.58-2.59,4.62,4.62,0,0,1,4.32,1.64,4.18,4.18,0,0,1,.94,2.8,3.4,3.4,0,0,1-.11.77Z"/><circle class="cls-29" cx="302.43" cy="193.07" r="2.45" transform="translate(68.93 465.49) rotate(-81.95)"/><path class="cls-31" d="M304.85,193.41a2.44,2.44,0,0,0-.09-0.59,2.35,2.35,0,0,0-.82-1.25,2.12,2.12,0,0,0-1.9-.37,2,2,0,0,0-.5,3.55,2.13,2.13,0,0,0,1.93.17,2.35,2.35,0,0,0,1.13-1,2.41,2.41,0,0,0,.25-0.54,2,2,0,0,1-.07.62,2.5,2.5,0,0,1-1,1.45,2.76,2.76,0,0,1-2.75.22,2.94,2.94,0,0,1-1.65-3.1,3.18,3.18,0,0,1,.29-0.91,2.93,2.93,0,0,1,2.14-1.55,2.77,2.77,0,0,1,2.58,1,2.5,2.5,0,0,1,.57,1.67A2,2,0,0,1,304.85,193.41Z"/><path class="cls-38" d="M308.85,176.88a3.47,3.47,0,0,1,2.59,2.67,3.72,3.72,0,0,1-3.24,4.13,4.12,4.12,0,0,1-3-.62c0,0.07,0,.14-0.06.22a1.49,1.49,0,0,1-.85,1,5.18,5.18,0,0,0,4.91,1.66,4.85,4.85,0,0,0,4.23-5.38A4.68,4.68,0,0,0,308.85,176.88Z"/><path class="cls-6" d="M142.15,208.06c-3,.67-6.56.88-9.14-0.39-9-3.56-7.68-14.87-4.19-22.75,1.73-4,4-8.14,6.12-12.17a54,54,0,0,0,4.87-11.69c1.28-4.16,2.48-8.81,1.83-9L140.77,148l5.78,1.82,9.34-.56-0.37,2.63L158,187.72"/><path class="cls-4" d="M142.15,208.06a19.41,19.41,0,0,1-5.41,1.18,9.72,9.72,0,0,1-4.2-.61l0.08,0a10.79,10.79,0,0,1-5-3.39,13.74,13.74,0,0,1-2.77-8.76,28.19,28.19,0,0,1,2.45-11.08,115.91,115.91,0,0,1,5.86-11.17A79.11,79.11,0,0,0,138.81,163c0.17-.48.33-0.95,0.48-1.43s0.31-1,.47-1.45q0.48-1.41.91-2.79c0.28-.92.55-1.82,0.77-2.7,0.11-.44.21-0.88,0.28-1.32a5.54,5.54,0,0,0,.08-0.66,0.65,0.65,0,0,0-.16-0.59c-0.13,6.29-2.89,14.95-6.86,22.65-1.89,3.91-3.83,7.77-5.24,11.49a34.1,34.1,0,0,0-1.55,5.38,26.91,26.91,0,0,0-.47,4.89,12.15,12.15,0,0,0,2.08,7.23,11,11,0,0,0,3.74,3.16l0.06,0C135.23,208,137.84,208.62,142.15,208.06Z"/></g></g></g></svg>